<svg width="197" height="45" viewBox="0 0 197 45" fill="none" xmlns="http://www.w3.org/2000/svg">
<g clip-path="url(#clip0_2669_5258)">
<path d="M98.1541 17.0573C98.4523 17.7324 98.8578 18.1423 99.3588 18.2628C99.3946 18.2628 99.4423 18.2628 99.4781 18.2628C99.6928 18.2628 99.9075 18.1664 100.098 17.9856C100.337 17.7806 100.552 17.5275 100.73 17.2382C100.909 16.9489 101.041 16.6957 101.124 16.4787C101.577 15.2371 101.864 13.9593 101.959 12.6333C101.971 12.4525 101.983 12.2475 101.983 11.9944C101.983 11.5845 102.007 11.1747 102.066 10.7528C102.114 10.3309 102.257 9.99333 102.46 9.72812C102.615 9.5473 102.854 9.45087 103.152 9.45087C103.271 9.45087 103.39 9.45087 103.51 9.48703C103.879 9.58347 104.142 9.7884 104.309 10.1018C104.464 10.4152 104.559 10.7769 104.583 11.1747C104.607 11.5002 104.619 11.8136 104.619 12.1149V12.3319C104.619 12.4766 104.619 12.6092 104.619 12.7177V13.5736C104.619 14.1522 104.619 14.7187 104.619 15.2974C104.619 15.5264 104.619 15.7554 104.619 15.9724V16.7198C104.619 17.1297 104.619 17.5757 104.571 18.0458C104.524 18.6727 104.38 19.1428 104.166 19.4442C103.939 19.6491 103.712 19.7576 103.498 19.7576C103.426 19.7576 103.343 19.7576 103.271 19.7214C102.985 19.625 102.734 19.4201 102.532 19.1066C102.329 18.7932 102.186 18.4798 102.114 18.1543C102.09 18.0217 102.078 17.9132 102.078 17.853C102.078 17.8047 102.078 17.7806 102.078 17.7806C102.078 17.7806 102.054 17.8168 102.019 17.865C101.971 17.9494 101.876 18.1061 101.709 18.3231C101.327 18.8776 100.886 19.3116 100.361 19.625C100.063 19.8058 99.7285 19.8902 99.3707 19.8902C99.1083 19.8902 98.834 19.842 98.5477 19.7576C97.9394 19.5165 97.4503 19.0584 97.0806 18.3954C96.7108 17.7324 96.4245 17.0091 96.2456 16.2256C96.0548 15.442 95.9236 14.7549 95.8401 14.1522C95.7924 13.887 95.7327 13.4651 95.6731 12.8985C95.6015 12.3319 95.5538 11.7654 95.5419 11.2229C95.5419 11.0782 95.5419 10.9456 95.5419 10.8251C95.5419 10.4755 95.5777 10.2224 95.6373 10.0536C95.8043 9.71607 96.019 9.5473 96.2933 9.5473H96.3172C96.4126 9.52319 96.508 9.51114 96.6392 9.48703C97.3907 9.48703 97.7724 10.0415 97.7724 11.1385V12.3319C97.7724 12.7659 97.7724 13.3204 97.7485 14.0075C97.8559 15.5505 98.0109 16.5511 98.2256 17.0212L98.1541 17.0573Z" fill="#42BFCC"/>
<path d="M110.702 12.561C110.416 12.995 110.189 13.441 110.01 13.8749C109.688 14.6103 109.497 15.1769 109.438 15.5747C109.39 15.864 109.354 16.1894 109.354 16.5511C109.354 16.6716 109.354 16.8042 109.354 16.9248C109.354 17.202 109.354 17.5516 109.354 17.9735V18.0459C109.354 18.5763 109.271 18.9982 109.092 19.3357C108.925 19.6732 108.579 19.842 108.03 19.842H107.959C107.35 19.7817 106.981 19.5286 106.873 19.0705C106.778 18.733 106.742 18.3834 106.742 18.0097C106.742 17.8771 106.742 17.7445 106.766 17.5998C106.766 17.5034 106.766 17.407 106.766 17.2985C106.766 17.202 106.766 17.1176 106.766 17.0212L106.79 16.0086V15.0925C106.79 13.8629 106.79 12.6454 106.754 11.4158V11.2591C106.754 10.7769 106.849 10.4032 107.028 10.126C107.243 9.81253 107.649 9.65582 108.257 9.65582C108.758 9.65582 109.092 10.3188 109.235 11.6569L109.295 12.1752C109.354 11.9944 109.45 11.7654 109.581 11.5122C109.712 11.247 109.843 11.0542 109.986 10.9216C110.404 10.4996 110.857 10.1742 111.358 9.95719C111.704 9.80048 112.074 9.72815 112.467 9.72815C112.825 9.72815 113.195 9.78842 113.589 9.92102C113.827 10.0054 114.018 10.1621 114.149 10.3912C114.221 10.4876 114.257 10.5961 114.257 10.7287C114.257 11.0059 114.257 11.1988 114.233 11.3073C114.221 11.4158 114.185 11.5363 114.137 11.6569C113.97 12.1029 113.72 12.332 113.386 12.332H113.255C113.04 12.332 112.682 12.1511 112.205 11.7774C112.086 11.6689 111.99 11.6207 111.919 11.6207C111.752 11.6207 111.537 11.7051 111.287 11.8739C111.048 12.0668 110.833 12.2958 110.654 12.573L110.702 12.561Z" fill="#42BFCC"/>
<path d="M120.161 18.0699C120.101 18.5762 119.982 18.9981 119.803 19.3357C119.636 19.6732 119.29 19.842 118.753 19.842H118.682C118.074 19.7817 117.704 19.5285 117.596 19.0705C117.501 18.7329 117.441 18.516 117.394 18.0217C117.394 18.0217 117.298 17.1658 117.358 16.2497C117.406 15.442 117.358 14.4777 117.322 13.6097C117.286 12.8864 117.274 12.2596 117.274 11.7292V11.3314C117.274 11.3314 117.167 11.3314 117.107 11.3314H116.952C116.69 11.3314 116.451 11.2952 116.225 11.235C115.95 11.1626 115.795 10.9336 115.76 10.5478C115.76 10.1259 115.915 9.87278 116.225 9.77634C116.439 9.71607 116.678 9.6799 116.917 9.6799C117.012 9.6799 117.095 9.6799 117.191 9.6799H117.31C117.31 9.4147 117.334 9.1495 117.346 8.8843C117.358 8.58293 117.37 8.28156 117.382 7.9802V7.32925C117.382 7.16048 117.382 6.99172 117.382 6.8109C117.382 6.53364 117.382 6.24433 117.417 5.95502C117.453 5.49694 117.573 5.09914 117.787 4.77366C117.99 4.43613 118.348 4.24326 118.849 4.18298C118.92 4.18298 119.004 4.18298 119.075 4.18298C119.481 4.18298 119.779 4.30353 119.958 4.53257C120.173 4.80983 120.304 5.14736 120.328 5.56927C120.34 5.75009 120.352 5.93091 120.352 6.11173C120.352 6.34077 120.352 6.55775 120.316 6.77473L120.268 7.41363C120.197 8.18513 120.149 8.94457 120.137 9.69196C120.555 9.69196 120.96 9.69196 121.378 9.71607C121.986 9.77634 122.344 9.98127 122.439 10.3188C122.463 10.3911 122.475 10.4755 122.475 10.5478C122.475 10.7889 122.344 11.0059 122.069 11.1747C121.89 11.2591 121.64 11.3073 121.282 11.3073C121.044 11.3073 120.829 11.3073 120.614 11.3073H120.304C120.221 11.3073 120.149 11.3073 120.077 11.3073V11.6328C120.077 12.1029 120.077 12.7177 120.113 13.4651C120.149 14.4053 120.221 15.3215 120.221 16.2256C120.221 16.2256 120.328 17.4069 120.185 18.0458L120.161 18.0699Z" fill="#42BFCC"/>
<path d="M128.033 12.561C127.747 12.995 127.52 13.441 127.341 13.8749C127.019 14.6103 126.829 15.1769 126.769 15.5747C126.721 15.864 126.685 16.1894 126.685 16.5511C126.685 16.6716 126.685 16.8042 126.685 16.9248C126.685 17.202 126.685 17.5516 126.685 17.9735V18.0459C126.685 18.5763 126.602 18.9982 126.423 19.3357C126.256 19.6732 125.91 19.842 125.373 19.842H125.302C124.693 19.7817 124.324 19.5286 124.216 19.0705C124.121 18.733 124.085 18.3834 124.085 18.0097C124.085 17.8771 124.085 17.7445 124.109 17.5998C124.109 17.5034 124.109 17.407 124.109 17.2985C124.109 17.202 124.109 17.1176 124.109 17.0212L124.133 16.0086V15.0925C124.133 13.8629 124.133 12.6454 124.097 11.4158V11.2591C124.097 10.7769 124.192 10.4032 124.371 10.126C124.586 9.81253 124.992 9.65582 125.6 9.65582C126.113 9.65582 126.435 10.3188 126.578 11.6569L126.638 12.1752C126.697 11.9944 126.793 11.7654 126.924 11.5122C127.055 11.247 127.186 11.0542 127.33 10.9216C127.747 10.4996 128.2 10.1742 128.701 9.95719C129.047 9.80048 129.417 9.72815 129.811 9.72815C130.168 9.72815 130.538 9.78842 130.932 9.92102C131.17 10.0054 131.361 10.1621 131.492 10.3912C131.564 10.4876 131.6 10.5961 131.6 10.7287C131.6 11.0059 131.6 11.1988 131.576 11.3073C131.564 11.4158 131.528 11.5363 131.48 11.6569C131.313 12.1029 131.063 12.332 130.729 12.332H130.598C130.383 12.332 130.025 12.1511 129.548 11.7774C129.429 11.6689 129.333 11.6207 129.262 11.6207C129.095 11.6207 128.88 11.7051 128.63 11.8739C128.391 12.0668 128.176 12.2958 127.997 12.573L128.033 12.561Z" fill="#42BFCC"/>
<path d="M134.808 4.65311C135.25 4.84598 135.572 5.1594 135.786 5.58132C135.929 5.85857 136.001 6.15994 136.001 6.46131C136.001 6.64213 135.977 6.81089 135.929 6.99171C135.798 7.43773 135.524 7.75115 135.106 7.90786C134.844 8.01636 134.57 8.06457 134.295 8.06457C134.152 8.06457 134.009 8.05252 133.866 8.01636C133.448 7.93197 133.162 7.75115 133.019 7.4739C132.924 7.28102 132.888 7.03993 132.888 6.73856C132.888 6.66623 132.888 6.58185 132.888 6.49747C132.912 6.08761 133.007 5.71392 133.162 5.35228C133.329 4.99064 133.556 4.74955 133.842 4.61694C133.997 4.56873 134.14 4.54462 134.283 4.54462C134.462 4.54462 134.629 4.58078 134.796 4.64105L134.808 4.65311ZM136.001 18.0458C136.001 18.5762 135.918 18.9981 135.739 19.3357C135.572 19.6732 135.226 19.842 134.689 19.842H134.617C134.009 19.7817 133.639 19.5285 133.532 19.0705C133.437 18.7329 133.413 18.4677 133.353 18.0699C133.353 18.0699 133.341 17.8891 133.27 17.3587C133.126 16.1653 133.103 15.6349 133.043 14.2004C132.971 13.3566 132.924 12.5007 132.912 11.6448V11.4278C132.912 10.9336 133.007 10.5237 133.186 10.1862C133.365 9.84866 133.711 9.6799 134.236 9.6799C134.319 9.6799 134.403 9.6799 134.498 9.6799C134.987 9.75222 135.333 9.92099 135.536 10.1982C135.727 10.4755 135.846 10.813 135.87 11.1988C135.87 11.3434 135.87 11.4881 135.87 11.6448C135.87 11.898 135.87 12.1511 135.834 12.4042C135.81 12.6453 135.798 12.8864 135.798 13.1034C135.798 13.6097 135.798 14.116 135.798 14.6344C135.798 15.3697 135.977 16.6957 135.989 17.5877C135.989 17.5877 135.989 17.6119 136.025 18.0338L136.001 18.0458Z" fill="#42BFCC"/>
<path d="M141.142 15.3215C141.142 15.4179 141.142 15.5264 141.142 15.6349C141.142 15.9242 141.178 16.2377 141.237 16.5752C141.321 17.0212 141.476 17.4311 141.703 17.7807C141.929 18.1302 142.239 18.3472 142.645 18.4196C142.716 18.4196 142.8 18.4196 142.872 18.4196C143.301 18.4196 143.659 18.2749 143.969 17.9735C144.327 17.6239 144.613 17.2382 144.828 16.8163C144.887 16.6957 144.947 16.5752 144.983 16.4546C145.054 16.2618 145.138 16.1051 145.233 15.9725C145.305 15.876 145.4 15.8399 145.531 15.8399C145.579 15.8399 145.627 15.8399 145.663 15.8399C145.913 15.9122 146.068 16.081 146.116 16.3341C146.14 16.4426 146.152 16.5511 146.152 16.6837C146.152 16.8404 146.128 16.9971 146.092 17.1538C146.02 17.4431 145.949 17.6842 145.853 17.8771C145.4 18.7571 144.768 19.3719 143.969 19.7215C143.468 19.9384 142.955 20.059 142.43 20.059C142.108 20.059 141.774 20.0108 141.44 19.9384C140.558 19.6732 139.89 19.179 139.436 18.4557C138.983 17.7204 138.709 16.9007 138.601 15.9725C138.554 15.5747 138.53 15.1889 138.53 14.8032C138.53 14.2848 138.566 13.7785 138.649 13.2722C138.876 11.898 139.401 10.9095 140.212 10.3068C140.856 9.82459 141.631 9.5835 142.549 9.5835C142.8 9.5835 143.062 9.60761 143.337 9.64377C144.029 9.74021 144.625 10.0054 145.114 10.4635C145.591 10.8854 145.83 11.4761 145.83 12.2476V12.3561C145.794 12.8021 145.675 13.1999 145.46 13.5374C145.245 13.875 144.959 14.1643 144.613 14.3933C144.1 14.7188 143.539 14.9478 142.931 15.0804C142.311 15.213 141.715 15.2974 141.13 15.3336L141.142 15.3215ZM144.207 11.7172C143.981 11.3917 143.695 11.235 143.372 11.235H143.277C142.907 11.2711 142.549 11.4037 142.204 11.6569C141.858 11.91 141.607 12.1994 141.44 12.5128C141.273 12.8985 141.166 13.2963 141.106 13.7062C141.416 13.7062 141.846 13.6459 142.406 13.5374C142.967 13.4289 143.444 13.2481 143.862 12.9829C144.16 12.79 144.315 12.5369 144.315 12.2114C144.315 12.1029 144.291 11.9824 144.255 11.8498L144.196 11.7051L144.207 11.7172Z" fill="#42BFCC"/>
<path d="M147.977 10.6684C148.06 10.2826 148.251 10.0295 148.561 9.88483C148.752 9.80045 148.955 9.76428 149.169 9.76428C149.301 9.76428 149.432 9.77634 149.563 9.8125C149.921 9.89688 150.219 10.0898 150.446 10.3791C150.613 10.6202 150.744 10.9215 150.851 11.3073C150.959 11.681 151.042 12.0667 151.102 12.4525C151.149 12.7177 151.209 12.9588 151.257 13.1757C151.257 13.1878 151.257 13.2119 151.257 13.236C151.293 13.4168 151.376 13.7182 151.495 14.1763C151.615 14.6223 151.758 15.0924 151.913 15.5987C152.068 16.105 152.223 16.5149 152.378 16.8524C152.509 17.1417 152.628 17.2864 152.724 17.2864C152.736 17.2864 152.76 17.2864 152.772 17.2864C152.927 17.1176 153.082 16.6716 153.261 15.9363C153.44 15.2009 153.607 14.4053 153.762 13.5494C153.917 12.6815 154.048 11.9703 154.143 11.4158C154.179 11.1988 154.215 11.03 154.239 10.9095C154.286 10.6202 154.394 10.367 154.573 10.1621C154.692 10.0295 154.847 9.95716 155.05 9.95716C155.133 9.95716 155.229 9.95716 155.324 9.99332C155.682 10.15 155.873 10.4152 155.873 10.813V10.8371C155.873 11.247 155.813 11.6328 155.706 12.0064C155.682 12.127 155.658 12.2234 155.646 12.3078C155.622 12.4042 155.598 12.5007 155.575 12.6333C155.455 13.2963 155.265 14.1401 155.026 15.1889C154.775 16.2376 154.477 17.202 154.096 18.094C153.726 18.9861 153.284 19.5527 152.784 19.7696C152.628 19.8058 152.473 19.8299 152.318 19.8299C152.044 19.8299 151.758 19.7696 151.471 19.6611C151.018 19.4803 150.648 19.2272 150.374 18.8776C150.112 18.516 149.825 17.9253 149.539 17.1056C149.253 16.2858 148.979 15.4541 148.74 14.6102C148.501 13.7664 148.323 13.1034 148.215 12.6453C148.144 12.344 148.084 12.0306 148.024 11.681C147.989 11.4158 147.965 11.1747 147.965 10.9215V10.7166L147.977 10.6684Z" fill="#42BFCC"/>
<path d="M160.405 15.3215C160.405 15.4179 160.405 15.5264 160.405 15.6349C160.405 15.9242 160.441 16.2377 160.501 16.5752C160.584 17.0212 160.739 17.4311 160.966 17.7807C161.193 18.1302 161.503 18.3472 161.908 18.4196C161.98 18.4196 162.063 18.4196 162.135 18.4196C162.564 18.4196 162.922 18.2749 163.232 17.9735C163.59 17.6239 163.876 17.2382 164.091 16.8163C164.151 16.6957 164.21 16.5752 164.246 16.4546C164.318 16.2618 164.401 16.1051 164.497 15.9725C164.568 15.876 164.664 15.8399 164.795 15.8399C164.843 15.8399 164.89 15.8399 164.926 15.8399C165.177 15.9122 165.332 16.081 165.379 16.3341C165.403 16.4426 165.415 16.5511 165.415 16.6837C165.415 16.8404 165.391 16.9971 165.355 17.1538C165.284 17.4431 165.212 17.6842 165.117 17.8771C164.664 18.7571 164.031 19.3719 163.232 19.7215C162.731 19.9384 162.218 20.059 161.694 20.059C161.372 20.059 161.038 20.0108 160.704 19.9384C159.821 19.6732 159.153 19.179 158.7 18.4557C158.246 17.7204 157.972 16.9007 157.865 15.9725C157.817 15.5747 157.793 15.1889 157.793 14.8032C157.793 14.2848 157.829 13.7785 157.912 13.2722C158.139 11.898 158.664 10.9095 159.475 10.3068C160.119 9.82459 160.894 9.5835 161.813 9.5835C162.063 9.5835 162.326 9.60761 162.6 9.64377C163.292 9.74021 163.888 10.0054 164.377 10.4635C164.854 10.8854 165.093 11.4761 165.093 12.2476V12.3561C165.057 12.8021 164.938 13.1999 164.723 13.5374C164.509 13.875 164.222 14.1643 163.876 14.3933C163.363 14.7188 162.803 14.9478 162.195 15.0804C161.574 15.213 160.978 15.2974 160.393 15.3336L160.405 15.3215ZM163.471 11.7172C163.244 11.3917 162.958 11.235 162.636 11.235H162.54C162.171 11.2711 161.813 11.4037 161.467 11.6569C161.121 11.91 160.871 12.1994 160.704 12.5128C160.537 12.8985 160.429 13.2963 160.37 13.7062C160.68 13.7062 161.109 13.6459 161.67 13.5374C162.23 13.4289 162.707 13.2481 163.125 12.9829C163.423 12.79 163.578 12.5369 163.578 12.2114C163.578 12.1029 163.554 11.9824 163.519 11.8498L163.459 11.7051L163.471 11.7172Z" fill="#42BFCC"/>
<path d="M132.888 3.83338C133.138 4.20708 133.198 4.64104 132.924 4.82186C132.769 4.93035 132.542 4.82186 132.351 4.72543C132.208 4.6531 132.184 4.60488 132.077 4.44817C131.934 4.24324 131.838 4.00215 131.85 3.80927C131.862 3.65256 131.886 3.53202 131.993 3.44763C132.136 3.3512 132.327 3.3512 132.506 3.44763C132.661 3.51996 132.757 3.66462 132.876 3.84544L132.888 3.83338Z" fill="#42BFCC"/>
<path d="M134.14 3.00163C134.164 3.13423 134.164 3.33916 134.152 3.45971C134.116 3.78518 134.021 4.0745 133.771 4.12271C133.568 4.15888 133.425 4.00217 133.27 3.82135C133.15 3.67669 133.079 3.55615 133.031 3.32711C132.983 3.09807 132.924 2.91725 132.971 2.74849C133.043 2.51945 133.198 2.35068 133.401 2.30246C133.568 2.2663 133.711 2.41095 133.854 2.5315C134.021 2.67616 134.081 2.73643 134.128 3.00163H134.14Z" fill="#42BFCC"/>
<path d="M135.953 4.18299C135.762 4.60491 135.786 5.03887 136.073 5.17147C136.24 5.25586 136.442 5.1112 136.621 4.9786C136.741 4.88216 136.764 4.83394 136.848 4.66518C136.955 4.43614 137.015 4.18299 136.967 4.00217C136.931 3.84546 136.896 3.72492 136.764 3.66464C136.609 3.59232 136.419 3.62848 136.252 3.73697C136.108 3.83341 136.037 3.99012 135.953 4.18299Z" fill="#42BFCC"/>
<path d="M134.701 3.04985C134.677 3.18245 134.677 3.38738 134.689 3.50793C134.725 3.8334 134.82 4.12271 135.071 4.17093C135.273 4.2071 135.417 4.05039 135.572 3.86957C135.691 3.72491 135.762 3.60436 135.81 3.37533C135.858 3.14629 135.918 2.96547 135.87 2.7967C135.798 2.56766 135.643 2.3989 135.44 2.35068C135.273 2.31452 135.13 2.45917 134.987 2.57972C134.82 2.72438 134.761 2.78465 134.713 3.04985H134.701Z" fill="#42BFCC"/>
<path d="M89.5064 13.7665V14.6464C89.5064 15.1889 89.5183 15.6831 89.5302 16.1292C89.5302 16.5752 89.5541 17.1418 89.566 17.853V18.0338C89.566 18.5401 89.4825 18.9982 89.3036 19.396C89.1008 19.842 88.6714 20.0951 88.0154 20.1554H87.9319C87.4906 20.1554 87.1685 20.0349 86.9896 19.8058C86.7868 19.5647 86.6675 19.2513 86.6318 18.8656C86.6198 18.6486 86.6079 18.4316 86.6079 18.2146C86.6079 18.0459 86.6079 17.8771 86.6079 17.7083C86.6079 17.5757 86.6079 17.4552 86.6079 17.3467L86.6318 14.3812C86.6318 11.2953 86.6318 8.93254 86.6079 7.28105C86.596 5.62957 86.584 4.74958 86.584 4.65314C86.584 4.2915 86.6198 3.92986 86.7033 3.58028C86.7988 3.11015 87.085 2.80878 87.5621 2.67618C87.9438 2.64001 88.3613 2.61591 88.8265 2.61591C89.1843 2.61591 89.5779 2.61591 89.9954 2.65207C90.4606 2.67618 90.8661 2.68823 91.224 2.68823C91.3194 2.68823 91.4148 2.68823 91.5102 2.68823C91.6057 2.68823 91.7011 2.68823 91.7965 2.68823C92.0112 2.68823 94.2894 2.71234 94.4922 2.76056C94.7665 2.83289 94.9574 3.03782 95.0409 3.39946C95.0409 3.44768 95.0409 3.50795 95.0409 3.54411C95.0409 3.78521 94.9574 3.97808 94.7904 4.09863C94.5876 4.24328 92.2856 4.31561 92.0112 4.31561H91.9635C91.8561 4.31561 91.7249 4.31561 91.5699 4.2915C91.379 4.27945 91.1882 4.26739 90.9854 4.26739C90.7826 4.26739 90.5918 4.26739 90.389 4.2915C89.9716 4.32767 89.6972 4.47232 89.566 4.72547C89.4825 4.96656 89.4467 5.29204 89.4467 5.67779V5.97915C89.4467 6.26846 89.4467 6.55778 89.4706 6.82298C89.4706 6.99174 89.4706 7.1364 89.4706 7.269V8.93254C89.4706 9.36651 89.4944 9.64377 89.5302 9.76431C89.6614 9.99335 89.8642 10.126 90.1266 10.1501C90.2578 10.1621 90.401 10.1742 90.5202 10.1742C90.6514 10.1742 90.7946 10.1742 90.9139 10.1501C91.0331 10.1501 91.1405 10.1501 91.2478 10.1501C91.3075 10.1501 91.379 10.1501 91.4506 10.1501C91.546 10.1501 92.9535 10.1501 93.037 10.1501C93.2636 10.1501 93.4903 10.1742 93.705 10.2344C94.0032 10.3068 94.1821 10.5238 94.2417 10.8974V10.9457C94.2417 11.3917 94.0389 11.6448 93.6572 11.7292C93.3948 11.7774 91.8204 11.8136 91.546 11.8136C91.391 11.8136 91.2478 11.8136 91.0928 11.7895C90.9377 11.7895 90.7946 11.7895 90.6872 11.7895H90.556C90.1505 11.7895 89.8761 11.8498 89.7091 11.9703C89.5302 12.1029 89.4467 12.4043 89.4467 12.8865V13.007C89.4467 13.1396 89.4587 13.2843 89.4706 13.4048C89.4706 13.5495 89.4825 13.6941 89.4944 13.8267L89.5064 13.7665Z" fill="#42BFCC"/>
<path d="M76.6959 13.4771C76.9702 13.453 77.2446 13.441 77.4951 13.441C78.7117 13.441 79.654 13.7182 80.322 14.2848C81.1211 14.9599 81.6817 16.0809 82.0038 17.6601C82.0515 17.8771 82.0754 18.1423 82.0873 18.4678V18.5401C82.0873 18.8415 82.0396 19.1067 81.9322 19.3478C81.8249 19.6009 81.5982 19.7215 81.2762 19.7215C80.8706 19.6612 80.5605 19.4201 80.3577 18.9741C80.155 18.5401 79.9761 18.0459 79.8329 17.5154C79.6898 16.9127 79.4989 16.4546 79.2962 16.1171L78.986 15.7916C78.7117 15.5626 78.4135 15.4421 78.1034 15.4421C77.9364 15.4421 77.7694 15.4662 77.6024 15.5264L77.3996 15.5988L77.1611 15.6952C76.2426 16.093 75.5747 16.8524 75.1334 17.9856C74.704 19.1187 74.4296 20.4086 74.3461 21.8672C74.3103 22.482 74.2865 23.0968 74.2865 23.6995C74.2865 24.5071 74.3223 25.3148 74.3819 26.0984C74.5012 27.4726 74.6562 28.5937 74.859 29.4737C74.9664 30.0402 75.1691 30.6791 75.4435 31.4265C75.7297 32.1618 76.1114 32.7525 76.6005 33.1985C76.8629 33.4276 77.173 33.5481 77.5309 33.5481C77.8052 33.5481 78.1153 33.4758 78.4493 33.3191C79.0338 32.9333 79.4274 32.4391 79.654 31.8364C79.8687 31.2336 80.0238 30.6188 80.1192 30.0161C80.1908 29.4857 80.2981 29.0397 80.4412 28.6781C80.5844 28.3164 80.8349 28.1235 81.1808 28.0874H81.2165C81.5863 28.0874 81.8368 28.232 81.9799 28.5093C82.1231 28.7745 82.1827 29.0879 82.1827 29.4496V29.5219C82.1827 29.9076 82.135 30.2331 82.0753 30.4862C81.9322 31.2577 81.6817 32.0413 81.3239 32.8128C80.978 33.5843 80.5009 34.2232 79.8926 34.7295C78.9026 35.4407 77.8648 35.7903 76.7794 35.7903C76.1949 35.7903 75.5985 35.6939 75.0022 35.501C73.8809 35.067 73.0102 34.2594 72.4019 33.078C71.7816 31.8966 71.3642 30.5345 71.1137 29.0035C70.899 27.5931 70.7916 26.1948 70.7916 24.8206V24.4951C70.8155 23.0244 70.899 21.7828 71.066 20.7702C71.221 19.625 71.5073 18.516 71.9009 17.4672C72.3065 16.4185 72.879 15.5264 73.6424 14.8032C74.4058 14.0799 75.4077 13.6339 76.6482 13.4771H76.6959Z" fill="#42BFCC"/>
<path d="M87.7053 24.1334C88.6118 23.7838 89.6376 23.603 90.7707 23.603C90.9735 23.603 91.1763 23.603 91.3791 23.6151C92.7508 23.6754 93.8958 24.0973 94.8023 24.8447C95.7685 25.797 96.3649 26.9542 96.6154 28.3043C96.7108 28.7865 96.7585 29.2808 96.7585 29.763C96.7585 30.6068 96.6154 31.4265 96.3291 32.2462C95.8639 33.524 95.0409 34.5366 93.86 35.2719C92.9893 35.7541 92.0709 36.0675 91.1166 36.2001C90.8423 36.2363 90.5799 36.2604 90.2936 36.2604C89.6137 36.2604 88.9219 36.1399 88.242 35.9108C87.1447 35.513 86.2859 34.7897 85.6656 33.741C85.0334 32.6922 84.6756 31.5229 84.5802 30.2331C84.5563 30.0402 84.5563 29.8353 84.5563 29.6424C84.5563 28.5816 84.771 27.569 85.2004 26.6287C85.7133 25.5197 86.5483 24.6879 87.7172 24.1334H87.7053ZM91.2717 34.2111C92.3213 34.1508 93.1444 33.7169 93.7408 32.8972C94.3372 32.0774 94.6711 31.1613 94.7308 30.1487V29.8353C94.7427 29.112 94.6234 28.4249 94.3968 27.7619C94.1225 26.9904 93.693 26.3997 93.1086 25.9778C92.6911 25.6764 92.1901 25.5318 91.5938 25.5318C91.3433 25.5318 91.0809 25.5559 90.8065 25.6162C89.7092 25.8814 88.9339 26.4238 88.4925 27.2676C88.1585 27.8824 87.9915 28.5695 87.9915 29.3169C87.9915 29.5942 88.0154 29.8714 88.0631 30.1608C88.1943 31.0769 88.5164 31.9448 89.0412 32.7646C89.566 33.5843 90.3055 34.0665 91.2836 34.2111H91.2717Z" fill="#42BFCC"/>
<path d="M99.4661 25.6162V25.5559C99.4661 24.8206 99.645 24.2661 99.991 23.9044C100.265 23.6151 100.683 23.4705 101.231 23.4705C101.375 23.4705 101.542 23.4705 101.72 23.4946C102.317 23.6031 102.675 23.808 102.806 24.1094C102.913 24.3746 102.973 24.7 102.973 25.1099V25.6403C102.973 25.7247 102.997 25.7608 103.009 25.7608H103.021C103.021 25.7608 103.08 25.7367 103.116 25.7006C103.152 25.6524 103.2 25.5921 103.259 25.5198C103.319 25.4354 103.378 25.351 103.438 25.2787C103.867 24.8326 104.416 24.4107 105.108 24.025C105.788 23.6392 106.492 23.4222 107.219 23.374H107.386C108.03 23.374 108.579 23.6272 109.056 24.1214C109.319 24.4469 109.569 24.8085 109.796 25.2184L109.986 25.5559C110.118 25.7488 110.237 25.8332 110.332 25.8332C110.356 25.8332 110.368 25.8332 110.404 25.8211C110.523 25.7608 110.654 25.6282 110.798 25.4233L111.024 25.1702C111.955 24.1335 113.112 23.5428 114.495 23.3981H114.674L114.71 23.3861C115.533 23.3861 116.165 23.6513 116.594 24.1696C117.048 24.7121 117.37 25.363 117.549 26.1225C117.728 26.8819 117.835 27.6052 117.871 28.2923C117.895 28.4852 117.918 28.7625 117.954 29.1241C118.014 29.775 118.085 30.5224 118.157 31.3904C118.229 32.2583 118.264 33.066 118.276 33.8133V33.9701C118.276 34.6331 118.217 35.1032 118.109 35.3805C117.918 35.73 117.62 35.9229 117.227 35.947H117.203C116.809 35.947 116.463 35.7903 116.165 35.4889C115.891 35.2237 115.748 34.8259 115.748 34.3076C115.748 34.2112 115.748 34.1147 115.76 34.0303C115.783 33.7651 115.819 33.512 115.855 33.2709C115.927 32.7767 115.986 32.2342 116.022 31.6556C116.046 31.306 116.058 30.86 116.058 30.3416C116.058 30.0764 116.058 29.7992 116.046 29.4978C116.046 28.6057 115.938 27.7499 115.748 26.9422C115.557 26.1345 115.223 25.6282 114.746 25.3992C114.638 25.351 114.531 25.3269 114.412 25.3269C113.958 25.3269 113.386 25.6524 112.682 26.2912C111.919 27.0627 111.394 27.9668 111.096 29.0156C110.798 30.0644 110.631 31.1131 110.595 32.1619C110.595 32.4512 110.619 32.8008 110.678 33.1986C110.738 33.5964 110.774 33.9942 110.774 34.3679V34.621C110.774 35.0791 110.607 35.4166 110.297 35.6215C110.13 35.6939 109.963 35.73 109.808 35.73C109.569 35.73 109.33 35.6457 109.092 35.4769C108.698 35.1996 108.472 34.8862 108.412 34.5246C108.412 34.4161 108.4 34.2955 108.4 34.1629C108.4 34.0183 108.4 33.8736 108.412 33.7169C108.436 33.3914 108.472 33.0539 108.507 32.7164C108.555 32.3186 108.591 31.981 108.603 31.6917C108.627 31.3542 108.627 30.8961 108.627 30.3296V29.7148C108.627 28.8348 108.531 27.9789 108.364 27.1471C108.197 26.3154 107.899 25.7367 107.47 25.4113C107.327 25.3028 107.172 25.2546 106.981 25.2546C106.599 25.2546 106.134 25.4715 105.597 25.9176C104.822 26.6047 104.213 27.4364 103.772 28.4129C103.331 29.3893 103.08 30.4019 103.021 31.4386C103.021 31.7279 103.009 32.0172 103.009 32.3186V32.7646C103.009 32.9575 103.021 33.1503 103.021 33.3432C103.021 33.6084 103.021 33.8616 102.997 34.1268C102.949 34.5848 102.806 34.9827 102.579 35.3081C102.341 35.6336 101.947 35.8265 101.398 35.8868C101.303 35.8868 101.22 35.8988 101.136 35.8988C100.575 35.8988 100.182 35.7421 99.9432 35.4166C99.6689 35.067 99.5138 34.609 99.49 34.0424C99.4661 33.7892 99.4661 33.5481 99.4661 33.295C99.4661 32.9816 99.4781 32.6802 99.5019 32.3668C99.5258 32.1136 99.5258 31.8846 99.5258 31.6676C99.5258 30.9202 99.5377 30.1728 99.5377 29.4255C99.5377 28.6781 99.5377 27.9307 99.5258 27.1833C99.5258 26.6529 99.5258 26.1225 99.5138 25.6041L99.4661 25.6162Z" fill="#42BFCC"/>
<path d="M120.948 25.6162V25.5559C120.948 24.8206 121.127 24.2661 121.473 23.9044C121.747 23.6151 122.165 23.4705 122.713 23.4705C122.857 23.4705 123.024 23.4705 123.202 23.4946C123.799 23.6031 124.157 23.808 124.288 24.1094C124.395 24.3746 124.455 24.7 124.455 25.1099V25.6403C124.455 25.7247 124.479 25.7608 124.491 25.7608H124.503C124.503 25.7608 124.562 25.7367 124.598 25.7006C124.634 25.6524 124.682 25.5921 124.741 25.5198C124.801 25.4354 124.86 25.351 124.92 25.2787C125.349 24.8326 125.898 24.4107 126.59 24.025C127.27 23.6392 127.974 23.4222 128.701 23.374H128.868C129.512 23.374 130.061 23.6272 130.538 24.1214C130.801 24.4469 131.051 24.8085 131.278 25.2184L131.468 25.5559C131.6 25.7488 131.719 25.8332 131.814 25.8332C131.838 25.8332 131.85 25.8332 131.886 25.8211C132.005 25.7608 132.136 25.6282 132.28 25.4233L132.506 25.1702C133.437 24.1335 134.594 23.5428 135.977 23.3981H136.156L136.192 23.3861C137.015 23.3861 137.647 23.6513 138.076 24.1696C138.53 24.7121 138.852 25.363 139.031 26.1225C139.21 26.8819 139.317 27.6052 139.353 28.2923C139.377 28.4852 139.4 28.7625 139.436 29.1241C139.496 29.775 139.567 30.5224 139.639 31.3904C139.711 32.2583 139.746 33.066 139.758 33.8133V33.9701C139.758 34.6331 139.699 35.1032 139.591 35.3805C139.4 35.73 139.102 35.9229 138.709 35.947H138.685C138.291 35.947 137.945 35.7903 137.647 35.4889C137.373 35.2237 137.23 34.8259 137.23 34.3076C137.23 34.2112 137.23 34.1147 137.242 34.0303C137.265 33.7651 137.301 33.512 137.337 33.2709C137.409 32.7767 137.468 32.2342 137.504 31.6556C137.528 31.306 137.54 30.86 137.54 30.3416C137.54 30.0764 137.54 29.7992 137.528 29.4978C137.528 28.6057 137.42 27.7499 137.23 26.9422C137.039 26.1345 136.705 25.6282 136.228 25.3992C136.12 25.351 136.013 25.3269 135.894 25.3269C135.44 25.3269 134.868 25.6524 134.164 26.2912C133.401 27.0627 132.876 27.9668 132.578 29.0156C132.28 30.0644 132.113 31.1131 132.077 32.1619C132.077 32.4512 132.101 32.8008 132.16 33.1986C132.22 33.5964 132.256 33.9942 132.256 34.3679V34.621C132.256 35.0791 132.089 35.4166 131.779 35.6215C131.612 35.6939 131.445 35.73 131.29 35.73C131.051 35.73 130.812 35.6457 130.574 35.4769C130.18 35.1996 129.954 34.8862 129.894 34.5246C129.894 34.4161 129.882 34.2955 129.882 34.1629C129.882 34.0183 129.882 33.8736 129.894 33.7169C129.918 33.3914 129.954 33.0539 129.989 32.7164C130.037 32.3186 130.073 31.981 130.085 31.6917C130.109 31.3542 130.109 30.8961 130.109 30.3296V29.7148C130.109 28.8348 130.013 27.9789 129.846 27.1471C129.679 26.3154 129.381 25.7367 128.952 25.4113C128.809 25.3028 128.653 25.2546 128.463 25.2546C128.081 25.2546 127.616 25.4715 127.079 25.9176C126.304 26.6047 125.695 27.4364 125.254 28.4129C124.813 29.3893 124.562 30.4019 124.503 31.4386C124.503 31.7279 124.491 32.0172 124.491 32.3186V32.7646C124.491 32.9575 124.503 33.1503 124.503 33.3432C124.503 33.6084 124.503 33.8616 124.479 34.1268C124.431 34.5848 124.288 34.9827 124.061 35.3081C123.823 35.6336 123.429 35.8265 122.88 35.8868C122.785 35.8868 122.702 35.8988 122.618 35.8988C122.057 35.8988 121.664 35.7421 121.425 35.4166C121.151 35.067 120.996 34.609 120.972 34.0424C120.948 33.7892 120.948 33.5481 120.948 33.295C120.948 32.9816 120.96 32.6802 120.984 32.3668C121.008 32.1136 121.008 31.8846 121.008 31.6676C121.008 30.9202 121.02 30.1728 121.02 29.4255C121.02 28.6781 121.02 27.9307 121.008 27.1833C121.008 26.6529 121.008 26.1225 120.996 25.6041L120.948 25.6162Z" fill="#42BFCC"/>
<path d="M145.245 32.5355C145.615 33.3673 146.104 33.8615 146.712 34.0062C146.76 34.0062 146.808 34.0182 146.867 34.0182C147.13 34.0182 147.392 33.9098 147.631 33.6807C147.929 33.4276 148.179 33.1262 148.406 32.7646C148.621 32.415 148.788 32.1016 148.883 31.8364C149.444 30.3175 149.778 28.7504 149.909 27.135C149.933 26.9181 149.933 26.6529 149.933 26.3515C149.933 25.8573 149.969 25.351 150.028 24.8326C150.088 24.3143 150.255 23.9044 150.517 23.5789C150.708 23.3499 150.994 23.2414 151.364 23.2414C151.507 23.2414 151.65 23.2534 151.805 23.2776C152.259 23.3981 152.581 23.6513 152.772 24.037C152.962 24.4227 153.082 24.8567 153.106 25.351C153.129 25.7488 153.141 26.1225 153.141 26.4961V26.7614C153.141 26.9422 153.129 27.0989 153.129 27.2435V28.2923C153.129 28.9915 153.129 29.6906 153.117 30.4019C153.117 30.6791 153.117 30.9564 153.106 31.2336V32.1498C153.117 32.6561 153.106 33.1985 153.046 33.7772C152.986 34.5487 152.819 35.1152 152.545 35.4889C152.271 35.7421 151.996 35.8626 151.722 35.8626C151.627 35.8626 151.531 35.8506 151.448 35.8264C151.102 35.7059 150.792 35.4528 150.541 35.0791C150.291 34.7054 150.124 34.3076 150.028 33.9098C150.004 33.741 149.992 33.6204 149.992 33.5481C149.992 33.4878 149.992 33.4517 149.98 33.4517C149.98 33.4517 149.945 33.4878 149.909 33.5602C149.849 33.6687 149.73 33.8495 149.539 34.1267C149.074 34.8018 148.525 35.3322 147.893 35.7059C147.523 35.9229 147.118 36.0314 146.688 36.0314C146.366 36.0314 146.032 35.9711 145.675 35.8626C144.935 35.5612 144.339 35.0067 143.885 34.1991C143.432 33.3914 143.086 32.5114 142.86 31.547C142.633 30.5947 142.466 29.7509 142.359 29.0156C142.299 28.6901 142.239 28.1717 142.156 27.4846C142.072 26.7855 142.013 26.0983 141.989 25.4353C141.989 25.2545 141.977 25.0978 141.977 24.9411C141.977 24.5192 142.013 24.2058 142.084 24.0008C142.287 23.591 142.561 23.386 142.883 23.386H142.907C143.015 23.3619 143.146 23.3378 143.301 23.3137C144.231 23.3137 144.685 23.9888 144.685 25.3389V26.7975C144.685 27.3279 144.685 28.015 144.661 28.8468C144.792 30.7273 144.983 31.9569 145.245 32.5355Z" fill="#42BFCC"/>
<path d="M161.3 24.1455C162.278 23.6633 163.113 23.4343 163.793 23.4343C164.031 23.4343 164.246 23.4584 164.449 23.5186C165.236 23.7356 165.821 24.266 166.202 25.1219C166.584 25.9778 166.823 27.0265 166.918 28.2923C167.025 29.6062 167.085 30.9202 167.085 32.2342C167.085 32.9333 167.073 33.6325 167.049 34.3196C167.025 34.7174 166.882 35.0911 166.62 35.4407C166.417 35.6938 166.143 35.8144 165.821 35.8144C165.713 35.8144 165.594 35.8023 165.463 35.7782C165.033 35.6336 164.783 35.3684 164.735 34.9706C164.735 34.85 164.723 34.7295 164.723 34.6089C164.723 34.3437 164.747 34.0665 164.807 33.7772C164.831 33.6566 164.843 33.5481 164.843 33.4396C164.902 33.0057 164.95 32.3426 164.986 31.4747C165.01 31.0769 165.01 30.6791 165.01 30.2813C165.01 29.7991 164.998 29.2928 164.974 28.7865C164.914 27.8463 164.771 27.0507 164.532 26.3756C164.294 25.7005 163.924 25.3389 163.435 25.2666H163.328C162.851 25.2666 162.218 25.6764 161.431 26.4961L161.193 26.7493C160.584 27.4726 160.119 28.3164 159.821 29.2446C159.523 30.1487 159.38 31.0649 159.38 31.9931V32.0774C159.38 32.2583 159.38 32.4391 159.392 32.6199C159.392 32.8007 159.403 32.9815 159.403 33.1624C159.403 33.5119 159.38 33.8736 159.344 34.2232C159.296 34.7656 159.129 35.1996 158.831 35.5251C158.604 35.7782 158.246 35.8988 157.757 35.8988C157.614 35.8988 157.471 35.8988 157.316 35.8747C156.529 35.73 156.064 35.4045 155.932 34.8982C155.849 34.5728 155.813 34.2111 155.813 33.8374C155.813 33.6084 155.825 33.3793 155.849 33.1262L155.873 32.4753C155.897 31.7279 155.897 30.9925 155.897 30.2572C155.897 29.5219 155.897 28.7865 155.873 28.0753C155.873 27.2797 155.861 26.4841 155.861 25.6764C155.861 24.8688 156.076 24.2419 156.505 23.8562C156.803 23.5789 157.185 23.4343 157.674 23.4343C157.901 23.4343 158.127 23.4584 158.378 23.5186C158.879 23.6512 159.177 23.8803 159.26 24.2058C159.332 24.4469 159.368 24.7121 159.368 25.0014C159.368 25.1099 159.368 25.2304 159.356 25.3389C159.356 25.4474 159.344 25.5679 159.344 25.6885C159.344 25.7608 159.344 25.797 159.368 25.797H159.38C159.38 25.797 159.415 25.7729 159.451 25.7367C159.487 25.7005 159.523 25.6523 159.559 25.592L159.725 25.363C159.916 25.1581 160.107 24.9652 160.322 24.7844L160.346 24.7603C160.644 24.5192 160.966 24.3022 161.3 24.1334V24.1455Z" fill="#42BFCC"/>
<path d="M177.605 25.5197C177.546 25.5197 177.474 25.5197 177.403 25.5318H177.212C176.902 25.5318 176.603 25.4956 176.329 25.4233C175.995 25.3269 175.804 25.0496 175.757 24.5795C175.757 24.0611 175.947 23.7477 176.329 23.6392C176.591 23.5669 176.878 23.5307 177.176 23.5307C177.283 23.5307 177.403 23.5307 177.51 23.5428H177.665C177.665 23.2173 177.689 22.8918 177.701 22.5784C177.725 22.2168 177.737 21.8431 177.737 21.4694V20.6738C177.737 20.4688 177.725 20.2639 177.725 20.0469C177.725 19.6973 177.737 19.3478 177.76 18.9982C177.808 18.4316 177.951 17.9494 178.214 17.5516C178.464 17.1418 178.905 16.9007 179.514 16.8283C179.609 16.8283 179.705 16.8163 179.788 16.8163C180.289 16.8163 180.647 16.9609 180.874 17.2382C181.136 17.5757 181.291 17.9976 181.327 18.5039C181.351 18.733 181.351 18.95 181.351 19.1669C181.351 19.4442 181.339 19.7215 181.315 19.9746L181.255 20.7582C181.172 21.6984 181.112 22.6387 181.088 23.5548C181.601 23.5548 182.102 23.5548 182.603 23.5789C183.355 23.6513 183.784 23.9044 183.903 24.3263C183.927 24.4228 183.939 24.5192 183.939 24.6036C183.939 24.905 183.772 25.1581 183.438 25.3751C183.223 25.4836 182.901 25.5318 182.484 25.5438C182.198 25.5438 181.923 25.5559 181.661 25.5559H181.291C181.184 25.5559 181.1 25.5559 181.017 25.5438V25.9417C181.017 26.5203 181.029 27.2677 181.052 28.1838C181.1 29.329 181.208 30.4501 181.375 31.5471C181.542 32.644 181.816 33.4035 182.198 33.8374C182.4 34.0303 182.615 34.1268 182.854 34.1509H182.997C183.176 34.1509 183.343 34.1388 183.51 34.1147C183.617 34.0906 183.712 34.0906 183.796 34.0906C183.903 34.0906 183.999 34.1026 184.082 34.1268C184.201 34.175 184.261 34.3317 184.261 34.5848V34.6933C184.201 35.1755 183.963 35.501 183.569 35.7059C183.176 35.8988 182.722 36.0073 182.221 36.0314H182.066C181.625 36.0314 181.243 35.9952 180.909 35.9229C180.086 35.73 179.442 35.2237 178.989 34.4281C178.536 33.6205 178.202 32.6802 178.011 31.5832C177.82 30.4863 177.701 29.4134 177.653 28.3526C177.617 27.4605 177.593 26.7011 177.593 26.0501V25.5559L177.605 25.5197Z" fill="#42BFCC"/>
<path d="M188.078 44.1321C187.684 43.8187 187.338 43.457 187.04 43.0472C186.814 42.7699 186.563 42.348 186.265 41.7935C185.967 41.239 185.776 40.6965 185.68 40.1541C185.657 40.0456 185.657 39.9491 185.657 39.8406C185.657 39.4549 185.812 39.1535 186.11 38.9486C186.265 38.8642 186.42 38.828 186.563 38.828C186.754 38.828 186.933 38.9124 187.1 39.0812C187.374 39.3584 187.577 39.6719 187.684 40.0215C187.756 40.2143 187.827 40.4193 187.887 40.6121C188.018 41.0702 188.185 41.4921 188.4 41.8779C188.615 42.2636 188.961 42.577 189.438 42.8302C189.784 42.9869 190.106 43.0713 190.392 43.0713C190.702 43.0713 190.988 42.9748 191.227 42.782C191.68 42.4203 192.05 41.8779 192.336 41.1666C192.897 39.9009 193.231 38.7557 193.35 37.7431C193.446 36.9355 193.493 36.0434 193.493 35.0549C193.493 34.8018 193.493 34.5486 193.481 34.2834V33.6807C192.849 34.7174 192.062 35.4407 191.12 35.8505C190.786 35.9952 190.44 36.0796 190.094 36.0796C189.45 36.0796 188.794 35.8385 188.09 35.3684C187.207 34.5728 186.67 33.6445 186.468 32.5717C186.301 31.6314 186.217 30.6791 186.217 29.6786V29.2567C186.217 28.8347 186.217 28.4249 186.205 28.003V27.9186C186.205 27.6895 186.193 27.4364 186.193 27.1591C186.193 26.8819 186.193 26.5926 186.205 26.2912C186.241 25.6764 186.372 25.1219 186.611 24.6277C186.837 24.1334 187.243 23.8441 187.804 23.7477H187.947C188.436 23.7477 188.746 23.9406 188.889 24.3263C188.996 24.6036 189.044 24.9049 189.044 25.2063C189.044 25.3509 189.032 25.5077 189.008 25.6644C188.949 26.0622 188.877 26.5202 188.77 27.0507C188.627 27.7739 188.495 28.5334 188.376 29.341C188.305 29.9076 188.269 30.4621 188.269 30.9925C188.269 31.2216 188.269 31.4385 188.281 31.6555C188.317 32.3909 188.507 32.9815 188.841 33.4396L189.116 33.753C189.39 34.0062 189.664 34.1267 189.939 34.1267C190.046 34.1267 190.153 34.1026 190.261 34.0665C190.619 33.9218 190.953 33.6687 191.239 33.295C191.525 32.9213 191.752 32.5596 191.907 32.21C192.789 30.3416 193.29 28.3767 193.386 26.3033C193.386 25.8452 193.422 25.4112 193.493 25.0014C193.565 24.5915 193.732 24.266 193.994 24.0249C194.197 23.8321 194.495 23.7477 194.901 23.7477C195.008 23.7477 195.127 23.7477 195.259 23.7718C195.879 23.8562 196.308 24.0852 196.559 24.4469C196.809 24.8085 196.952 25.2425 196.976 25.7488C196.976 25.9657 196.988 26.1827 196.988 26.4118C196.988 26.7011 196.988 26.9904 196.964 27.2917C196.94 27.5811 196.928 27.8583 196.928 28.1356C196.928 28.9432 196.928 29.8232 196.952 30.7755C196.976 31.547 196.988 32.3426 196.988 33.1503C196.988 33.958 196.976 34.7897 196.952 35.6336C196.905 38.2735 196.332 40.4795 195.235 42.2636C194.137 44.0477 192.849 44.9639 191.394 45C189.855 44.9759 188.758 44.6866 188.078 44.1321Z" fill="#42BFCC"/>
<path d="M172.023 17.3347C172.56 17.5758 172.965 17.9494 173.228 18.4798C173.407 18.8294 173.49 19.1911 173.49 19.5648C173.49 19.7818 173.466 19.9987 173.407 20.2157C173.24 20.7702 172.906 21.1439 172.405 21.3489C172.083 21.4815 171.749 21.5417 171.415 21.5417C171.236 21.5417 171.057 21.5176 170.878 21.4815C170.365 21.373 170.019 21.156 169.828 20.8185C169.721 20.5774 169.661 20.276 169.661 19.9144C169.661 19.8179 169.661 19.7215 169.673 19.613C169.697 19.1187 169.816 18.6366 170.019 18.2026C170.222 17.7566 170.496 17.4552 170.854 17.2985C171.045 17.2382 171.224 17.2141 171.403 17.2141C171.618 17.2141 171.832 17.2503 172.035 17.3226L172.023 17.3347ZM173.49 33.8375C173.49 34.4884 173.383 35.0188 173.168 35.4166C172.965 35.8265 172.524 36.0435 171.868 36.0435H171.785C171.033 35.9711 170.58 35.6577 170.437 35.0912C170.329 34.6813 170.294 34.3438 170.21 33.8616C170.21 33.8616 170.186 33.6446 170.115 32.9816C169.936 31.5109 169.912 30.8479 169.84 29.0879C169.745 28.0512 169.685 27.0025 169.673 25.9296V25.6644C169.673 25.0617 169.781 24.5554 170.007 24.1335C170.222 23.7236 170.651 23.5066 171.295 23.5066C171.403 23.5066 171.51 23.5066 171.618 23.5187C172.226 23.6031 172.643 23.8201 172.894 24.1576C173.132 24.5072 173.275 24.917 173.299 25.3992C173.299 25.58 173.311 25.7609 173.311 25.9537C173.311 26.2672 173.299 26.5806 173.264 26.8819C173.24 27.1833 173.216 27.4726 173.216 27.7499C173.216 28.3767 173.204 29.0036 173.204 29.6304C173.204 30.5345 173.431 32.1739 173.442 33.2709C173.442 33.2709 173.442 33.3071 173.49 33.8134V33.8375Z" fill="#42BFCC"/>
<path d="M169.661 16.3221C169.972 16.7922 170.043 17.3226 169.709 17.5396C169.518 17.6722 169.244 17.5396 169.005 17.419C168.838 17.3346 168.791 17.2744 168.671 17.0815C168.492 16.8284 168.373 16.539 168.397 16.2979C168.421 16.1051 168.433 15.9484 168.576 15.8519C168.755 15.7314 168.981 15.7314 169.22 15.8399C169.411 15.9243 169.53 16.1051 169.673 16.3221H169.661Z" fill="#42BFCC"/>
<path d="M171.2 15.2974C171.236 15.4662 171.236 15.7073 171.224 15.864C171.176 16.2738 171.069 16.6114 170.759 16.6837C170.52 16.7319 170.341 16.527 170.138 16.31C169.983 16.1412 169.9 15.9725 169.852 15.7073C169.805 15.4421 169.709 15.201 169.781 14.984C169.876 14.6947 170.055 14.4898 170.305 14.4415C170.508 14.4054 170.687 14.5741 170.866 14.7188C171.069 14.8876 171.14 14.9719 171.212 15.3095L171.2 15.2974Z" fill="#42BFCC"/>
<path d="M173.443 16.744C173.204 17.2624 173.228 17.7928 173.586 17.9615C173.8 18.058 174.051 17.8892 174.266 17.7204C174.421 17.5999 174.444 17.5396 174.54 17.3347C174.671 17.0454 174.743 16.744 174.683 16.515C174.635 16.3221 174.588 16.1774 174.433 16.1051C174.242 16.0087 174.003 16.0569 173.8 16.2015C173.621 16.3221 173.538 16.515 173.431 16.7561L173.443 16.744Z" fill="#42BFCC"/>
<path d="M171.892 15.3577C171.856 15.5265 171.856 15.7676 171.868 15.9243C171.916 16.3342 172.023 16.6717 172.333 16.744C172.572 16.7922 172.751 16.5873 172.953 16.3703C173.109 16.2015 173.192 16.0328 173.24 15.7676C173.287 15.5024 173.383 15.2613 173.311 15.0443C173.216 14.755 173.037 14.5501 172.786 14.5018C172.584 14.4657 172.405 14.6344 172.226 14.7791C172.023 14.9479 171.952 15.0322 171.88 15.3698L171.892 15.3577Z" fill="#42BFCC"/>
<path d="M6.28596 21.5417C8.08706 20.9269 9.57804 16.0086 9.98359 12.4886C10.5203 7.87171 9.95973 4.7375 9.17249 4.12271C9.10093 4.06244 9.0055 4.03833 8.89815 4.03833C8.69538 4.03833 8.37333 4.03833 7.83658 4.26737C7.29983 4.49641 5.34366 5.79831 3.76919 6.90734C1.89652 8.23335 0.322046 9.55936 0.0357785 11.0059C-0.250489 12.4525 1.10928 15.3938 2.03965 17.3467C2.50484 18.3231 3.19665 19.6853 4.0316 20.6014C4.71149 21.3488 5.47487 21.8069 6.28596 21.5417Z" fill="#42BFCC"/>
<path d="M63.1579 26.0742C63.5753 25.2063 64.8874 22.2408 64.6846 19.5165C64.5415 17.6118 64.0882 15.8277 63.3129 14.2004C63.2414 14.0557 63.1698 13.9111 63.0982 13.7664C63.3964 11.3796 63.4799 9.29413 63.3487 7.69086C63.1579 5.31609 62.4899 3.94186 61.321 3.5079C60.6292 3.25475 59.7823 3.35119 58.7088 3.82132C57.9812 4.14679 57.1224 4.64103 56.192 5.30404C55.4883 5.81033 54.8322 6.32868 54.3313 6.7506C54.0092 6.66621 53.6752 6.58183 53.3413 6.52156C52.7687 6.40101 52.1843 6.31663 51.5879 6.25636C51.0153 6.19608 50.4428 6.17197 49.8464 6.17197H49.8225C48.2839 6.17197 46.7929 6.35279 45.3973 6.72649C44.8964 6.30457 44.2642 5.81033 43.5724 5.31609C42.6301 4.65309 41.7832 4.14679 41.0556 3.83337C39.9821 3.36324 39.1233 3.2668 38.4434 3.51995C38.2287 3.60433 38.0259 3.71283 37.847 3.85748C37.847 3.55612 37.0836 3.03777 36.8809 2.85695C35.7358 1.84436 34.3641 1.1693 32.897 0.614782C32.2886 0.385743 31.728 0.216978 31.2271 0.132596C29.1278 -0.253153 27.601 0.373689 26.2532 0.916148C25.2393 1.32601 24.2731 1.72381 23.0326 1.72381C21.7921 1.72381 20.8379 1.32601 19.8121 0.916148C19.3827 0.735328 18.9414 0.554508 18.4643 0.409853C17.9275 0.241088 17.3669 0.0964318 16.7348 0.0482133C16.3888 0.0120493 16.0191 0.0120493 15.6255 0.0482133C15.375 0.0723226 15.1126 0.0964319 14.8382 0.14465C13.6097 0.373689 11.9517 1.04875 10.2102 2.02518C9.82854 2.24216 9.80468 2.7364 10.1506 3.0016C10.1983 3.03777 10.2341 3.07393 10.2818 3.11009C12.3215 4.93035 11.6893 11.3555 11.5461 12.6574C11.5461 12.7538 10.3414 22.1203 6.65574 22.9762C6.39332 23.0364 6.15477 23.0605 5.91621 23.0605C5.49874 23.0605 5.16476 23.374 5.21247 23.7597C5.23633 23.9767 5.26018 24.1937 5.28404 24.3986C5.37946 25.2183 5.46295 25.9657 5.55838 26.6287L2.8269 36.1278C2.8269 36.1278 11.2122 34.0062 14.3492 33.3673C17.188 34.7535 19.9076 35.4527 23.3428 35.4527C27.768 35.4527 31.9189 34.1749 35.3064 31.993C36.5469 31.1974 37.6681 30.2813 38.682 29.2566C38.682 29.2566 38.7058 29.2807 38.7177 29.2928C41.6043 32.0895 45.6955 33.6927 49.9418 33.6927C52.2916 33.6927 54.3074 33.2467 56.4306 32.2582C58.7923 32.7645 64.2433 34.1388 64.291 34.1508L65.5792 34.4763L63.1698 26.0742H63.1579ZM29.5572 6.32868C30.2609 6.32868 31.0601 6.58183 31.6803 7.00374C32.5153 7.57031 32.9805 8.40208 32.9805 9.34235C32.9805 9.94508 32.4437 10.4393 31.7877 10.4393C31.1316 10.4393 30.5949 9.94508 30.5949 9.34235C30.5949 8.6914 29.6884 8.53469 29.5572 8.53469C29.5572 8.53469 28.6864 8.60701 28.6864 9.34235C28.6864 9.94508 28.1497 10.4393 27.4937 10.4393C26.8376 10.4393 26.3009 9.94508 26.3009 9.34235C26.3009 7.48593 27.9946 6.34074 29.5572 6.34074V6.32868ZM16.3531 6.32868C16.6513 6.32868 16.9733 6.3769 17.2834 6.46129C17.7009 6.58183 18.1184 6.76265 18.4762 7.00374C18.5478 7.05196 18.6074 7.10018 18.679 7.1484C19.3947 7.71497 19.7763 8.47441 19.7763 9.33029C19.7763 9.93302 19.2396 10.4273 18.5836 10.4273C18.2854 10.4273 18.011 10.3308 17.8083 10.1621C17.5578 9.95713 17.3908 9.65577 17.3908 9.33029C17.3908 8.89632 16.9852 8.67934 16.6751 8.5829C16.5201 8.53469 16.4008 8.52263 16.3531 8.52263C16.3531 8.52263 15.4823 8.59496 15.4823 9.33029C15.4823 9.93302 14.9456 10.4273 14.2895 10.4273C13.6335 10.4273 13.0968 9.93302 13.0968 9.33029C13.0968 7.47388 14.7905 6.32868 16.3531 6.32868ZM33.4337 23.7356C32.3483 25.4594 29.8673 26.3635 28.0065 25.7005C24.1658 24.3383 22.0546 24.3383 18.2019 25.7005C17.7605 25.8572 17.2954 25.9295 16.8063 25.9295C15.1126 25.9295 13.2995 25.0375 12.4407 23.6392C11.8801 22.723 10.9736 20.2759 14.8144 17.5033C15.3392 17.1296 16.0787 17.214 16.4843 17.6962C16.8898 18.1784 16.7944 18.8655 16.2815 19.2392C15.2915 19.9504 13.7528 21.3247 14.5162 22.5542C15.0768 23.4704 16.5678 23.9285 17.3431 23.6512C19.013 23.0605 20.4205 22.6989 21.7802 22.5542V21.5296C19.8598 20.8184 18.9772 18.54 18.9772 16.3823C18.9772 15.9724 19.335 15.6469 19.7763 15.6469H26.2651C26.7064 15.6469 27.0642 15.9724 27.0642 16.3823C27.0642 18.2025 26.1697 20.7702 24.2612 21.5296V22.5301C25.6687 22.6627 27.1358 23.0364 28.8654 23.6512C29.5572 23.8923 30.8215 23.4945 31.3702 22.6386C32.1932 21.3367 30.7142 19.9384 29.7599 19.2272C29.247 18.8414 29.1755 18.1543 29.581 17.6842C29.9985 17.214 30.7499 17.1417 31.2628 17.5275C35.1036 20.4085 33.8989 23.0244 33.4337 23.7477V23.7356ZM56.4783 30.8117L56.2039 30.7514L55.9534 30.8719C53.9376 31.8484 52.1365 32.2703 49.9299 32.2703C46.1011 32.2703 42.4154 30.8237 39.8151 28.3043C39.7674 28.2561 39.7197 28.2079 39.66 28.1597C38.0021 26.4961 36.9286 24.5071 36.4992 22.3734C37.0359 22.3734 37.5727 22.3614 38.1094 22.3493C38.6581 22.3493 38.6581 21.4934 38.1094 21.5055C37.525 21.5055 36.9405 21.5175 36.368 21.5296C36.2964 20.9389 36.2845 20.3362 36.3083 19.7335C36.3083 19.6973 36.3083 19.6491 36.3083 19.6129C36.3083 19.6129 36.3083 19.6129 36.3083 19.6009C36.9405 19.625 37.5727 19.6491 38.2168 19.6852C38.7654 19.7093 38.7654 18.8655 38.2168 18.8414C37.6085 18.8173 37.0001 18.7932 36.3918 18.7691C36.5469 17.4913 36.8809 16.2738 37.3699 15.1406C37.5369 14.7428 37.7277 14.3571 37.9424 13.9834C38.014 13.8628 38.0856 13.7423 38.1571 13.6097C38.1094 13.2481 38.0736 12.8985 38.0379 12.5489C38.0021 12.139 37.9663 11.7292 37.9305 11.3434C37.8351 9.98124 37.8232 8.77578 37.9066 7.77524C38.1094 5.30404 38.7774 4.87007 38.9802 4.79774C39.1233 4.73747 39.994 4.55665 42.5943 6.40101C42.9879 6.67827 43.3577 6.96758 43.7036 7.23278C44.2284 7.6547 44.6817 8.02839 44.9798 8.29359C45.3377 8.17305 45.6955 8.07661 46.0653 7.99223C47.2461 7.71497 48.4866 7.57031 49.7987 7.57031H49.8225C49.9418 7.57031 50.0611 7.57031 50.1923 7.57031C50.8722 7.58237 51.5282 7.64264 52.1723 7.73908C52.6972 7.81141 53.21 7.9199 53.711 8.0525C54.045 8.13688 54.367 8.23332 54.6891 8.34181C54.9754 8.08866 55.4167 7.71497 55.9534 7.281C56.3113 6.99169 56.7049 6.69032 57.1224 6.40101C59.7226 4.55665 60.5934 4.73747 60.7365 4.79774C60.9393 4.87007 61.6072 5.30404 61.81 7.77524C61.8935 8.84811 61.8816 10.1621 61.7623 11.6448C61.7027 12.3801 61.6192 13.1637 61.5118 13.9713C61.7146 14.333 61.8935 14.6946 62.0605 15.0804C62.5615 16.2376 62.8954 17.5033 63.0624 18.8414L61.4641 18.9137C60.9274 18.9378 60.9154 19.7817 61.4641 19.7576C62.0247 19.7335 62.5853 19.7093 63.1459 19.6852C63.1817 20.3121 63.1221 20.963 63.0147 21.6019C62.5376 21.6019 62.0605 21.6019 61.5834 21.5899C61.0347 21.5899 61.0347 22.4337 61.5834 22.4337C62.0009 22.4337 62.4183 22.4337 62.8358 22.4457C62.3945 24.2178 61.655 25.6643 61.643 25.6884L61.5237 25.9295L63.3964 32.4632C61.5118 31.993 58.0766 31.1492 56.4783 30.8117Z" fill="#42BFCC"/>
<path d="M40.9601 6.90732C40.6023 6.42513 39.9582 6.63006 39.9343 7.23279L39.7912 11.8979C39.7793 12.3801 40.1967 12.7659 40.5904 12.6453L42.0456 12.1873L43.5008 11.7292C43.8944 11.6086 44.0137 11.0541 43.7274 10.6684L40.9601 6.91937V6.90732Z" fill="#42BFCC"/>
<path d="M58.6849 6.90729L55.9176 10.6563C55.6314 11.042 55.7507 11.5965 56.1443 11.7171L57.5995 12.1752L59.0547 12.6332C59.4483 12.7538 59.8658 12.368 59.8538 11.8859L59.7107 7.22071C59.6988 6.61798 59.0427 6.41305 58.6849 6.89523V6.90729Z" fill="#42BFCC"/>
<path d="M45.5166 17.4551C45.5285 16.3822 47.2103 16.3822 47.2342 17.4551C47.2342 17.9252 47.9737 17.9373 47.9737 17.4551C47.9499 15.4299 44.8129 15.4179 44.789 17.4551C44.789 17.9252 45.5166 17.9373 45.5285 17.4551H45.5166Z" fill="#42BFCC"/>
<path d="M52.4228 17.4551C52.4347 16.3822 54.1165 16.3822 54.1404 17.4551C54.1404 17.9252 54.8799 17.9373 54.8799 17.4551C54.8561 15.4299 51.719 15.4179 51.6952 17.4551C51.6952 17.9252 52.4228 17.9373 52.4347 17.4551H52.4228Z" fill="#42BFCC"/>
<path d="M54.4386 24.712C54.3074 25.4956 53.6991 26.0139 52.9119 26.0621C51.409 26.1586 50.4428 25.2183 50.3235 23.7959C51.1227 23.5789 51.8384 22.8797 51.7906 22.1685C51.731 21.3126 49.8226 21.3247 49.8226 21.3247C49.8226 21.3247 47.9141 21.3126 47.8545 22.1685C47.8068 22.8797 48.5224 23.5668 49.3216 23.7959C49.2142 25.2183 48.2362 26.1465 46.7332 26.0621C45.946 26.0139 45.3377 25.4835 45.2065 24.712C45.0991 24.0852 44.1568 24.3504 44.2523 24.9772C44.467 26.2912 45.6836 27.0868 46.948 27.0627C48.26 27.0386 49.2619 26.4358 49.8106 25.4715C50.3712 26.4358 51.3612 27.0265 52.6733 27.0627C53.9377 27.0868 55.1543 26.2912 55.369 24.9772C55.4763 24.3624 54.5221 24.0852 54.4148 24.712H54.4386Z" fill="#42BFCC"/>
</g>
<defs>
<clipPath id="clip0_2669_5258">
<rect width="197" height="45" fill="white"/>
</clipPath>
</defs>
</svg>
