<svg width="36" height="36" viewBox="0 0 36 36" fill="none" xmlns="http://www.w3.org/2000/svg">
<path d="M18.7501 33H6.12008C4.38008 33 2.95508 31.605 2.95508 29.895V7.63504C2.95508 3.70504 5.88008 1.92004 9.46508 3.67504L16.1251 6.94504C17.5651 7.65004 18.7501 9.52504 18.7501 11.115V33Z" stroke="black" stroke-width="1.5" stroke-linecap="round" stroke-linejoin="round"/>
<path d="M32.955 22.5904V28.2604C32.955 31.5004 31.455 33.0004 28.215 33.0004H18.75V15.6304L19.455 15.7804L26.205 17.2954L29.25 17.9704C31.23 18.4054 32.85 19.4254 32.94 22.3054C32.955 22.3954 32.955 22.4854 32.955 22.5904Z" stroke="black" stroke-width="1.5" stroke-linecap="round" stroke-linejoin="round"/>
<path d="M8.25 13.5H13.455" stroke="black" stroke-width="1.5" stroke-linecap="round" stroke-linejoin="round"/>
<path d="M8.25 19.5H13.455" stroke="black" stroke-width="1.5" stroke-linecap="round" stroke-linejoin="round"/>
<path d="M26.2051 17.2953V22.1253C26.2051 23.9853 24.6901 25.5003 22.8301 25.5003C20.9701 25.5003 19.4551 23.9853 19.4551 22.1253V15.7803L26.2051 17.2953Z" stroke="black" stroke-width="1.5" stroke-linecap="round" stroke-linejoin="round"/>
<path d="M32.9401 22.3049C32.8501 24.0749 31.3801 25.4999 29.5801 25.4999C27.7201 25.4999 26.2051 23.9849 26.2051 22.1249V17.2949L29.2501 17.9699C31.2301 18.4049 32.8501 19.4249 32.9401 22.3049Z" stroke="black" stroke-width="1.5" stroke-linecap="round" stroke-linejoin="round"/>
</svg>
