<svg width="36" height="36" viewBox="0 0 36 36" fill="none" xmlns="http://www.w3.org/2000/svg">
<path d="M7.5 15H10.5C13.5 15 15 13.5 15 10.5V7.5C15 4.5 13.5 3 10.5 3H7.5C4.5 3 3 4.5 3 7.5V10.5C3 13.5 4.5 15 7.5 15Z" stroke="black" stroke-width="2.5" stroke-miterlimit="10" stroke-linecap="round" stroke-linejoin="round"/>
<path d="M25.5 15H28.5C31.5 15 33 13.5 33 10.5V7.5C33 4.5 31.5 3 28.5 3H25.5C22.5 3 21 4.5 21 7.5V10.5C21 13.5 22.5 15 25.5 15Z" stroke="black" stroke-width="2.5" stroke-miterlimit="10" stroke-linecap="round" stroke-linejoin="round"/>
<path d="M25.5 33H28.5C31.5 33 33 31.5 33 28.5V25.5C33 22.5 31.5 21 28.5 21H25.5C22.5 21 21 22.5 21 25.5V28.5C21 31.5 22.5 33 25.5 33Z" stroke="black" stroke-width="2.5" stroke-miterlimit="10" stroke-linecap="round" stroke-linejoin="round"/>
<path d="M7.5 33H10.5C13.5 33 15 31.5 15 28.5V25.5C15 22.5 13.5 21 10.5 21H7.5C4.5 21 3 22.5 3 25.5V28.5C3 31.5 4.5 33 7.5 33Z" stroke="black" stroke-width="2.5" stroke-miterlimit="10" stroke-linecap="round" stroke-linejoin="round"/>
</svg>
