<svg width="36" height="36" viewBox="0 0 36 36" fill="none" xmlns="http://www.w3.org/2000/svg">
<path d="M12.6747 9.90723C14.4163 9.90723 15.8282 8.49533 15.8282 6.75367C15.8282 5.012 14.4163 3.6001 12.6747 3.6001C10.933 3.6001 9.52109 5.012 9.52109 6.75367C9.52109 8.49533 10.933 9.90723 12.6747 9.90723Z" fill="#42BFCC"/>
<path d="M23.6452 25.7439L22.4591 24.7913C22.191 24.5757 21.7987 24.6183 21.5831 24.8867C21.3679 25.1548 21.4104 25.5471 21.6786 25.7624L22.8887 26.7344V29.3777C22.8887 29.3905 21.8275 31.4682 21.8275 31.4682C21.6685 31.7735 21.7874 32.1496 22.0925 32.3085C22.1844 32.3561 22.2827 32.3789 22.3794 32.3789C22.6043 32.3789 22.8214 32.2569 22.9328 32.0435L24.0049 29.9837L25.2047 32.0673C25.3202 32.2675 25.5295 32.3795 25.7453 32.3795C25.8508 32.3795 25.9578 32.3526 26.0557 32.296C26.3538 32.1243 26.4565 31.7432 26.2847 31.4454L25.2376 29.6271H29.1151V31.756C29.1151 32.1005 29.3942 32.3792 29.7383 32.3792C30.0824 32.3792 30.3609 32.0999 30.3609 31.756V29.3999C30.3618 29.3927 30.3656 29.3858 30.3656 29.3786V27.4083L27.4639 25.7448H23.6452V25.7439Z" fill="#d7b56d"/>
<path d="M31.978 24.4764C31.5929 24.1135 31.4634 23.689 31.0313 23.3814C30.9559 23.3282 30.8796 23.2735 30.7995 23.2281C30.7513 23.2012 30.736 23.1693 30.7413 23.1174C30.7598 22.9387 30.7776 22.7595 30.792 22.5811C30.8176 22.2611 30.7247 21.9689 30.4679 21.7799C30.3646 21.7036 29.855 21.4567 29.6332 22.3018C29.585 22.4851 29.5193 22.6678 29.4314 22.8358C29.1113 23.4512 28.7043 24.014 28.3154 24.5872C28.1377 24.8484 27.9597 25.1096 27.783 25.3702L30.5073 26.9217C30.5073 26.9217 31.0326 26.3476 31.1064 26.3801C31.2084 26.4255 31.311 26.4693 31.4136 26.514C31.7133 26.6448 32.0262 26.7052 32.3541 26.6861C32.9109 26.6536 33.4913 26.3576 33.5445 25.6897C33.593 25.0771 32.1079 24.5987 31.978 24.4764Z" fill="#d7b56d"/>
<path d="M21.8262 19.6603L26.9689 25.2294L27.4532 24.7824L22.3083 19.2107C20.7359 17.5392 19.3531 16.1908 18.3592 16.6112C18.3157 16.6297 18.2744 16.6513 18.2343 16.676C15.8857 16.3531 15.3886 15.2606 14.6365 13.6078C14.2286 12.7109 13.7658 11.6941 12.9383 10.7972C12.9324 10.7906 12.9249 10.7862 12.9186 10.7796C12.6296 10.4602 12.2767 10.2021 11.9166 10.0275C11.9166 10.0275 11.6125 9.8611 11.2652 9.79446C10.9333 9.73064 10.3586 9.74754 9.99439 9.79196C6.14816 10.3545 4.44154 13.1961 2.79624 15.953L2.62793 16.2352C2.28097 16.8152 2.46994 17.567 3.05028 17.9143C3.24707 18.0319 3.46356 18.0879 3.67755 18.0879C4.09396 18.0879 4.50005 17.8755 4.72937 17.4919L4.89894 17.2078C5.74771 15.7853 6.50231 14.5276 7.46622 13.6185L6.43255 18.443C6.28801 19.1175 6.47697 19.7398 6.85146 20.245L6.53485 25.0752L4.52195 30.2792C4.21159 31.082 4.61048 31.9846 5.41327 32.2946C5.59785 32.3662 5.78807 32.4 5.97484 32.4C6.59992 32.4 7.18934 32.0212 7.42836 31.4033L9.52698 25.9765C9.58392 25.8292 9.61834 25.674 9.62866 25.5163L9.81293 22.7044L11.6644 25.6308L13.1802 31.2099C13.366 31.9073 13.9961 32.3672 14.6847 32.3666C14.8173 32.3666 14.9525 32.3494 15.0873 32.314C15.9189 32.0922 16.4132 31.2384 16.1914 30.4068L14.6143 24.5971C14.5736 24.4451 14.5101 24.2993 14.4253 24.1657L11.9044 20.1818C11.9851 20.021 12.0498 19.8471 12.0911 19.6544L12.9349 15.7171C13.6839 17.1328 14.8411 18.5478 17.4941 19.0312C17.4935 19.2317 17.4985 19.4448 17.5088 19.6709L18.1674 19.6403C18.1583 19.446 18.1549 19.2711 18.1542 19.1069C18.723 19.0696 19.2073 18.642 19.2874 18.0551C19.3253 17.7791 19.2639 17.5144 19.1363 17.2892C19.941 17.6543 21.1667 18.9592 21.8262 19.6603Z" fill="#42BFCC"/>
</svg>
