<svg width="36" height="36" viewBox="0 0 36 36" fill="none" xmlns="http://www.w3.org/2000/svg">
<path d="M17.8886 6.64328C17.7121 6.45456 17.4527 6.36664 17.1976 6.40882C16.9426 6.45095 16.7255 6.61765 16.6189 6.85314L9.64002 22.0065C9.32734 21.9246 9.00518 21.8672 8.66719 21.8672C6.53492 21.8672 4.8 23.6021 4.8 25.7344C4.8 27.8666 6.53492 29.6016 8.66719 29.6016C10.7994 29.6016 12.5344 27.8666 12.5344 25.7344C12.5344 25.0981 12.3652 24.5063 12.0918 23.9763L18.3937 10.1399C18.9896 8.94791 18.7465 7.56088 17.8886 6.64328ZM8.66719 28.0547C7.38772 28.0547 6.34688 27.0138 6.34688 25.7344C6.34688 24.4549 7.38772 23.4141 8.66719 23.4141C9.94666 23.4141 10.9875 24.4549 10.9875 25.7344C10.9875 27.0138 9.94666 28.0547 8.66719 28.0547Z" fill="#42BFCC"/>
<path d="M17.9484 21.8672C17.6104 21.8672 17.2883 21.9246 16.9756 22.0064L15.8256 19.5093L14.1577 23.172L14.5239 23.9762C14.2504 24.5061 14.0813 25.0981 14.0813 25.7344C14.0813 27.8666 15.8162 29.6015 17.9484 29.6015C20.0807 29.6015 21.8156 27.8666 21.8156 25.7344C21.8156 23.6021 20.0807 21.8672 17.9484 21.8672ZM17.9484 28.0547C16.669 28.0547 15.6281 27.0138 15.6281 25.7344C15.6281 24.4549 16.669 23.4141 17.9484 23.4141C19.2279 23.4141 20.2687 24.4549 20.2687 25.7344C20.2687 27.0138 19.2279 28.0547 17.9484 28.0547Z" fill="#42BFCC"/>
<path d="M28.8797 6.39844C28.1994 6.39844 27.9528 6.39844 27.8737 6.39844C27.8494 6.39844 27.8408 6.39844 27.8404 6.39844C27.6962 6.39844 26.9964 6.39844 24.136 6.39844C23.7085 6.39844 23.3626 6.74437 23.3626 7.17187C23.3626 7.59938 23.7085 7.94531 24.136 7.94531H26.5594V9.49218H24.136C23.7085 9.49218 23.3626 9.83812 23.3626 10.2656C23.3626 10.6931 23.7085 11.0391 24.136 11.0391H26.5594V12.5859H24.136C23.7085 12.5859 23.3626 12.9319 23.3626 13.3594C23.3626 13.7869 23.7085 14.1328 24.136 14.1328H26.5594V15.6797H24.136C23.7085 15.6797 23.3626 16.0256 23.3626 16.4531C23.3626 16.8806 23.7085 17.2266 24.136 17.2266H26.5594V18.7734H24.136C23.7085 18.7734 23.3626 19.1194 23.3626 19.5469C23.3626 19.9744 23.7085 20.3203 24.136 20.3203H26.5594V21.8672H24.136C23.7085 21.8672 23.3626 22.2131 23.3626 22.6406C23.3626 23.0681 23.7085 23.414 24.136 23.414H26.5594V24.9609H24.136C23.7085 24.9609 23.3626 25.3069 23.3626 25.7344C23.3626 26.1619 23.7085 26.5078 24.136 26.5078H26.5594V28.0547H24.136C23.7085 28.0547 23.3626 28.4006 23.3626 28.8281C23.3626 29.2556 23.7085 29.6015 24.136 29.6015C26.9919 29.6015 27.6946 29.6015 27.8403 29.6015C27.8659 29.6015 27.8743 29.6015 27.8742 29.6015C27.954 29.6015 28.2013 29.6015 28.8797 29.6015C30.1592 29.6015 31.2 28.5607 31.2 27.2812V8.71875C31.2 7.43928 30.1592 6.39844 28.8797 6.39844Z" fill="#d7b56d"/>
<path d="M9.99672 6.85309C9.89019 6.61765 9.67306 6.4509 9.41803 6.40883C9.163 6.36665 8.90359 6.45451 8.7271 6.64328C7.86915 7.56089 7.62603 8.94792 8.22199 10.1399L10.7977 15.7951L12.4563 12.1938L9.99672 6.85309Z" fill="#42BFCC"/>
</svg>
