<svg width="50" height="50" viewBox="0 0 50 50" fill="none" xmlns="http://www.w3.org/2000/svg">
<rect x="0.5" y="0.5" width="49" height="49" rx="15.5" fill="white" stroke="#CECECE"/>
<path d="M27.9999 17H15.9999C15.4476 17 14.9999 16.5523 14.9999 16.0001C14.9999 15.4478 15.4476 15.0001 15.9999 15.0001H27.9999C28.5521 15.0001 28.9999 15.4478 28.9999 16.0001C28.9999 16.5523 28.5521 17 27.9999 17Z" fill="#00C1CE"/>
<path d="M25.9999 23H15.9999C15.4476 23 14.9999 22.5523 14.9999 22.0001C14.9999 21.4478 15.4476 21.0001 15.9999 21.0001H25.9999C26.5522 21.0001 26.9999 21.4478 26.9999 22.0001C26.9999 22.5523 26.5522 23 25.9999 23Z" fill="#00C1CE"/>
<path d="M23.9999 29H15.9999C15.4476 29 14.9999 28.5523 14.9999 28.0001C14.9999 27.4478 15.4476 27.0001 15.9999 27.0001H23.9999C24.5522 27.0001 24.9999 27.4478 24.9999 28.0001C24.9999 28.5523 24.5522 29 23.9999 29Z" fill="#00C1CE"/>
<path d="M21.9999 35H15.9999C15.4476 35 14.9999 34.5523 14.9999 34.0001C14.9999 33.4478 15.4476 33.0001 15.9999 33.0001H21.9999C22.5522 33.0001 22.9999 33.4478 22.9999 34.0001C22.9999 34.5523 22.5522 35 21.9999 35Z" fill="#00C1CE"/>
<path d="M30.9999 33.0001C30.4476 33.0001 29.9999 32.5523 29.9999 32V16.0001C29.9999 15.4478 30.4476 15.0001 30.9999 15.0001C31.5522 15.0001 31.9999 15.4478 31.9999 16.0001V32C31.9999 32.5523 31.5522 33.0001 30.9999 33.0001Z" fill="#00C1CE"/>
<path d="M30.9999 34.9999C30.7341 35.0015 30.4787 34.8971 30.2899 34.7099L27.2899 31.7099C26.8978 31.3178 26.8978 30.6821 27.2899 30.2899C27.6821 29.8978 28.3178 29.8978 28.7099 30.2899L30.9999 32.5899L33.2899 30.2899C33.6821 29.8978 34.3178 29.8978 34.7099 30.2899C35.102 30.6821 35.102 31.3178 34.7099 31.7099L31.7099 34.7099C31.5212 34.8971 31.2658 35.0015 30.9999 34.9999Z" fill="#00C1CE"/>
</svg>
