<svg width="36" height="36" viewBox="0 0 36 36" fill="none" xmlns="http://www.w3.org/2000/svg">
<path d="M30.6254 15.8602C30.5472 15.3656 30.1224 15.001 29.6154 15.001L6.38442 15C5.87734 15 5.45255 15.3646 5.37438 15.8592L3.61246 27.028C3.51578 27.6434 3.99406 28.199 4.62559 28.199L31.3752 28.2C32.0057 28.2 32.485 27.6434 32.3873 27.029L30.6254 15.8602ZM27.2569 23.1239C27.2569 24.2462 26.3363 25.1552 25.1998 25.1552C24.0632 25.1552 23.1427 24.2462 23.1427 23.1239H12.8571C12.8571 24.2462 11.9366 25.1552 10.8 25.1552C9.66345 25.1552 8.7429 24.2462 8.7429 23.1239C8.7429 22.5135 9.02061 21.9732 9.4526 21.6005C9.02061 21.2278 8.7429 20.6875 8.7429 20.0771C8.7429 18.9548 9.66345 18.0458 10.8 18.0458C11.9366 18.0458 12.8571 18.9548 12.8571 20.0771H23.1427C23.1427 18.9548 24.0632 18.0458 25.1998 18.0458C26.3363 18.0458 27.2569 18.9548 27.2569 20.0771C27.2569 20.6875 26.9792 21.2278 26.5472 21.6005C26.9792 21.9732 27.2569 22.5135 27.2569 23.1239Z" fill="#42BFCC"/>
<path d="M28.2 12.163V13.1998H7.8V12.163C7.8 10.9583 8.8149 9.9814 10.0664 9.9814C10.6009 9.9814 11.0864 10.167 11.474 10.4654C11.9259 9.53762 12.898 8.8906 14.0332 8.8906C14.7023 8.8906 15.3092 9.1233 15.7937 9.49639C16.0232 8.52635 16.9219 7.7998 18 7.7998C19.0781 7.7998 19.9768 8.52635 20.2063 9.49639C20.6908 9.1233 21.2977 8.8906 21.9668 8.8906C23.102 8.8906 24.0741 9.53762 24.526 10.4654C24.9136 10.167 25.3991 9.9814 25.9336 9.9814C27.1851 9.9814 28.2 10.9583 28.2 12.163Z" fill="#d7b56d"/>
</svg>
