<svg width="36" height="36" viewBox="0 0 36 36" fill="none" xmlns="http://www.w3.org/2000/svg">
<path d="M26.7835 28.212C26.6315 28.5759 26.8032 28.9949 27.1678 29.147C27.2844 29.1955 27.4062 29.2111 27.5231 29.1979C27.7725 29.1695 27.9997 29.0107 28.103 28.7629C28.6691 27.409 28.851 26.3706 28.8555 25.5921C28.8625 25.5882 28.8695 25.5835 28.8765 25.579C29.1023 26.3034 29.0847 27.2226 29.2575 28.3142C29.3186 28.6927 29.6665 28.9555 30.0441 28.9128C30.0549 28.9112 30.0656 28.9096 30.0766 28.9081C30.4665 28.8461 30.7325 28.4792 30.6705 28.0897C30.4077 26.4331 29.9117 24.0455 29.8808 23.9536C29.6657 23.3245 29.4059 22.8664 29.11 22.5331C29.0945 22.5078 29.0785 22.4816 29.0643 22.4598C29.9604 21.9087 30.8775 21.0533 31.5299 19.7217C31.669 19.4374 31.5506 19.095 31.2663 18.9571C30.9828 18.8185 30.6401 18.9359 30.5018 19.2202C29.8176 20.6332 28.7604 21.3988 27.8414 21.8147C25.334 20.895 24.9386 23.1843 22.1482 22.726C21.7594 23.2689 21.3629 23.6856 20.9942 24.003C20.8097 24.2324 20.5974 24.4751 20.3523 24.7252L16.5158 28.0514C16.2354 28.2949 16.2051 28.7191 16.4484 28.9998C16.5812 29.1529 16.7683 29.2317 16.9565 29.2317C17.1125 29.2317 17.2693 29.1776 17.3965 29.0673L17.3979 29.0659C17.4147 29.0573 17.4318 29.0494 17.4482 29.0392L21.1559 26.7117C21.5239 26.977 22.5887 27.4167 23.2175 27.4254C24.797 27.4472 26.999 25.324 27.094 25.3022C27.0169 25.8142 27.1278 27.3868 26.7835 28.212Z" fill="#d7b56d"/>
<path d="M21.8312 22.2412C21.5964 21.4591 20.9655 20.4026 20.007 20.0854C20.0445 19.5233 19.9351 19.0671 19.2984 18.7669C18.7634 18.5148 18.1585 18.6963 18.4162 18.9147C19.1537 19.5404 18.7759 20.1876 18.7496 20.2114C18.7173 20.2403 18.3499 20.9436 17.7351 21.1725C17.3018 21.3334 16.0884 21.6273 16.102 22.1796C16.1157 22.7386 16.1838 22.8534 16.4344 23.1416C16.793 23.5545 17.6624 23.2099 18.2632 23.3068C18.5395 23.3511 19.1725 23.9505 19.5224 24.3284C19.6577 24.2675 19.8283 24.1805 20.0249 24.0565C20.5264 23.7402 21.19 23.1874 21.8312 22.2412ZM18.8043 21.9401C18.563 21.9401 18.3674 21.7445 18.3674 21.5032C18.3674 21.2619 18.563 21.0663 18.8043 21.0663C19.0456 21.0663 19.2412 21.2619 19.2412 21.5032C19.2412 21.7445 19.0456 21.9401 18.8043 21.9401Z" fill="#d7b56d"/>
<path d="M29.3914 18.938C29.4063 18.9433 29.4218 18.9459 29.4368 18.9459C29.492 18.9459 29.5437 18.9121 29.5637 18.8572C29.5637 18.857 29.5757 18.8231 29.6072 18.7638C29.7047 18.5803 29.9447 18.2371 30.389 18.2396C30.4064 18.2396 30.4227 18.2398 30.4383 18.2409C30.5124 18.2464 30.5768 18.1908 30.5821 18.1167C30.5875 18.0426 30.5316 17.9784 30.4579 17.9729C30.4333 17.9712 30.4103 17.9707 30.3891 17.9707C29.9929 17.9702 29.7152 18.1757 29.55 18.3712C29.3829 18.5673 29.3146 18.7568 29.311 18.7657C29.2856 18.8353 29.3216 18.9126 29.3914 18.938Z" fill="#d7b56d"/>
<path d="M30.3959 17.617C30.47 17.6236 30.5352 17.5687 30.5418 17.4949C30.548 17.4209 30.4935 17.3555 30.4196 17.349C30.3496 17.3432 30.2826 17.3404 30.2185 17.3404C29.5373 17.3371 29.1326 17.6657 28.9271 17.9891C28.7187 18.3122 28.6869 18.624 28.6853 18.6355C28.6773 18.7096 28.7308 18.7757 28.8049 18.7834C28.8097 18.7839 28.8146 18.7842 28.8194 18.7842C28.8872 18.7842 28.9452 18.7327 28.9526 18.6638C28.9526 18.6638 28.9586 18.6037 28.9872 18.5034C29.083 18.1962 29.3351 17.6134 30.2185 17.6097C30.2752 17.6093 30.3342 17.6115 30.3959 17.617Z" fill="#d7b56d"/>
<path d="M32.42 20.3939C32.4452 20.4151 32.476 20.4256 32.5068 20.4256C32.5451 20.4256 32.583 20.4093 32.6096 20.378C32.8564 20.0863 32.9492 19.8004 32.9486 19.5531C32.9443 19.0437 32.5885 18.7374 32.5788 18.7261C32.5232 18.677 32.438 18.682 32.3892 18.7379C32.3398 18.7936 32.3452 18.8784 32.4009 18.9275C32.4009 18.9275 32.4144 18.9393 32.4405 18.9685C32.5212 19.0569 32.6811 19.2751 32.6797 19.5532C32.6791 19.7347 32.6169 19.951 32.404 20.2046C32.3561 20.2611 32.3631 20.346 32.42 20.3939Z" fill="#d7b56d"/>
<path d="M33.0517 20.9532C33.0948 20.9532 33.1373 20.9325 33.1633 20.8939C33.461 20.4526 33.5605 20.01 33.5598 19.6269C33.5587 18.909 33.224 18.3994 33.2176 18.3876C33.177 18.3254 33.0938 18.308 33.0315 18.3485C32.9693 18.389 32.9517 18.4724 32.9923 18.5347V18.5344C32.9923 18.5347 33.0085 18.5589 33.0364 18.6116C33.1205 18.7691 33.2918 19.1534 33.2912 19.6269C33.291 19.9648 33.2065 20.348 32.9404 20.7438C32.899 20.8052 32.9151 20.889 32.9768 20.9305C32.9997 20.9458 33.0259 20.9532 33.0517 20.9532Z" fill="#d7b56d"/>
<path d="M11.9554 10.3174C12.3345 8.69083 11.3232 7.06494 9.69655 6.68584C8.06994 6.30675 6.44401 7.318 6.06493 8.94454C5.68585 10.5711 6.69717 12.197 8.32378 12.5761C9.95039 12.9552 11.5763 11.9439 11.9554 10.3174Z" fill="#42BFCC"/>
<path d="M8.35849 28.7789L13.489 23.4017C13.9899 22.8766 14.0973 22.09 13.7552 21.4498C13.4132 20.8097 12.6997 20.4613 11.9847 20.5863L7.3323 21.3967C7.36362 20.1216 7.58192 18.8141 7.80964 17.6491C6.66287 17.1211 5.92246 16.6189 5.65791 16.428L5.65482 16.4256L5.64205 16.4165C5.35479 16.2011 5.16861 15.8867 5.1178 15.5312C5.06699 15.1759 5.15746 14.8221 5.37307 14.5346C5.62538 14.1977 6.02758 13.9969 6.44913 13.9969C6.7415 13.9969 7.02003 14.0895 7.25473 14.2652L7.2675 14.2743C7.28686 14.2883 7.31576 14.3087 7.35663 14.336C7.47505 14.4161 7.60787 14.4996 7.75156 14.5852C7.87967 14.6616 8.04084 14.7535 8.23052 14.8543C8.13736 13.915 7.65075 13.0804 6.85321 12.8813C5.70563 12.5954 4.04214 13.2184 3.36532 15.1866C2.45056 17.8985 2.2539 19.6636 2.60152 22.6501C3.02213 24.8143 4.5055 25.0364 5.73736 25.0209C6.13189 25.016 6.45599 24.9986 6.71126 24.9162L7.53608 24.7727L5.92717 26.4587C5.28637 27.1298 5.3115 28.1936 5.98295 28.8343C6.30826 29.1449 6.72564 29.299 7.14249 29.299C7.58595 29.299 8.02848 29.1246 8.35849 28.7789Z" fill="#42BFCC"/>
<path d="M5.80363 16.2002H5.80312V16.1997L5.80363 16.2002Z" fill="black"/>
<path d="M7.20673 14.5588C7.16278 14.5293 7.13132 14.5073 7.11237 14.4937C7.10269 14.4868 7.09651 14.4824 7.09328 14.48C6.61796 14.124 5.94423 14.2203 5.58814 14.6953C5.23178 15.1705 5.32803 15.8445 5.80308 16.201C5.90766 16.2743 9.50054 18.963 15.1582 18.9713C15.5866 18.9713 16.0256 18.9554 16.475 18.9223C17.0671 18.8782 17.5118 18.3628 17.4681 17.7708C17.4244 17.1783 16.9089 16.7337 16.3165 16.7773C15.9198 16.8065 15.5336 16.8203 15.1582 16.8203C12.6809 16.8206 10.6448 16.2228 9.2325 15.6273C8.52704 15.3295 7.97886 15.0331 7.6139 14.8158C7.43136 14.707 7.29478 14.618 7.20673 14.5588Z" fill="#42BFCC"/>
</svg>
