<svg width="36" height="36" viewBox="0 0 36 36" fill="none" xmlns="http://www.w3.org/2000/svg">
<path d="M25.8322 9.61721C27.4938 9.61721 28.8408 8.27024 28.8408 6.60865C28.8408 4.94707 27.4938 3.6001 25.8322 3.6001C24.1706 3.6001 22.8237 4.94707 22.8237 6.60865C22.8237 8.27024 24.1706 9.61721 25.8322 9.61721Z" fill="#42BFCC"/>
<path d="M27.1759 9.79897L27.1672 9.79776C27.1672 9.79776 26.8079 9.72253 26.485 9.7153C26.1485 9.70748 25.831 9.80228 25.831 9.80228C25.0025 10.0048 24.1235 10.6025 23.8391 11.496C23.273 13.6857 19.8404 14.5936 18.6842 14.7634C18.0455 14.8549 17.602 15.4468 17.6934 16.0851C17.7768 16.6678 18.2767 17.0879 18.8482 17.0879C18.9035 17.0879 18.9589 17.084 19.0152 17.0758C19.1699 17.0539 21.7041 16.6711 23.7416 15.2166L23.7394 18.7479C23.7388 19.7287 24.3778 20.4218 25.1521 20.7856L25.1581 30.7367C25.1587 31.616 25.8716 32.3284 26.751 32.3284H26.7516C27.6316 32.3284 28.3445 31.6142 28.3439 30.7349L28.3373 20.488C28.8829 20.0835 29.2603 19.4906 29.2609 18.7512L29.2648 12.1102C29.2651 10.8727 28.1877 10.0475 27.1759 9.79897Z" fill="#42BFCC"/>
<path d="M18.0241 31.447L16.687 24.8379L12.8795 25.5854L8.93166 31.3817H7.24486C6.96347 31.3817 6.73566 31.6095 6.73566 31.8906C6.73566 32.1722 6.96347 32.3998 7.24486 32.3998L15.098 32.3925C15.5299 32.3925 15.8796 32.0347 15.879 31.6026C15.8787 31.171 15.5287 30.8216 15.0971 30.8216H15.0965L14.3935 30.8222L15.7391 28.1429L16.4932 31.7654C16.57 32.1346 16.8953 32.3877 17.2579 32.3877C17.3106 32.3877 17.3645 32.3823 17.418 32.3712C17.8406 32.2836 18.112 31.8698 18.0241 31.447Z" fill="#d7b56d"/>
<path d="M15.9946 20.9182C15.3779 20.9107 14.9319 20.6486 14.3183 20.7253C14.2115 20.7389 14.1031 20.7524 13.9984 20.7768C13.9358 20.7912 13.8973 20.7768 13.8609 20.7277C13.7357 20.5595 13.6102 20.3928 13.4814 20.2276C13.2502 19.9326 12.9409 19.7557 12.571 19.7963C12.4223 19.8123 11.7901 20.0031 12.2665 20.9029C12.37 21.0985 12.4582 21.3067 12.5156 21.5201L13.1013 24.842L16.6636 24.1772C16.6636 24.1772 16.6606 23.2698 16.7496 23.2394C16.8727 23.1973 16.9961 23.1543 17.1195 23.1112C17.4797 22.9863 17.7957 22.7916 18.0615 22.5163C18.5135 22.0489 18.778 21.3371 18.2965 20.7223C17.8544 20.158 16.2031 20.9206 15.9946 20.9182Z" fill="#d7b56d"/>
</svg>
