<svg width="36" height="36" viewBox="0 0 36 36" fill="none" xmlns="http://www.w3.org/2000/svg">
<path d="M18 9.51658C13.3216 1.08097 3.07023 6.74143 5.05095 16.3002C6.98834 25.6536 18 30.5999 18 30.5999C18 30.5999 29.0106 25.6536 30.9491 16.3002C32.9299 6.74143 22.6773 1.08097 18 9.51658ZM18.6345 13.4133C18.7043 12.7311 19.0122 12.1079 19.4583 11.7464C19.7625 11.4999 20.1073 11.3884 20.4522 11.4249C21.333 11.5163 21.9505 12.557 21.8289 13.7445C21.7591 14.4267 21.4513 15.0499 21.0051 15.4114C20.7385 15.6275 20.4413 15.7397 20.1387 15.7397C20.0962 15.7397 20.0538 15.7374 20.0112 15.7329C19.1305 15.6415 18.513 14.6009 18.6345 13.4133ZM15.5479 11.4249C15.8948 11.3884 16.2379 11.5001 16.5418 11.7464C16.988 12.1079 17.2958 12.7311 17.3656 13.4133C17.4872 14.6009 16.8696 15.6415 15.9889 15.7329C15.9464 15.7374 15.9038 15.7397 15.8614 15.7397C15.5589 15.7397 15.2616 15.6275 14.995 15.4116C14.549 15.0499 14.241 14.4268 14.171 13.7445C14.0497 12.557 14.6673 11.5163 15.5479 11.4249ZM12.4722 18.0161C12.3287 18.0161 12.1803 17.9923 12.0299 17.9446C11.5094 17.7794 11.0212 17.3346 10.7238 16.7548C10.2049 15.7429 10.3935 14.6013 11.1441 14.2101C11.4414 14.055 11.7875 14.0332 12.1448 14.1466C12.6651 14.3116 13.1535 14.7565 13.4511 15.3364C13.9698 16.3481 13.7812 17.4897 13.0305 17.8813C12.8584 17.9711 12.67 18.0161 12.4722 18.0161ZM22.8279 22.6151C22.6404 23.4615 22.0344 24.1291 21.1646 24.4466C20.9157 24.5375 20.6572 24.5817 20.3998 24.5817C19.7649 24.5817 19.1362 24.3134 18.6731 23.8169C18.4973 23.6284 18.2582 23.5247 18 23.5247C17.7418 23.5247 17.5027 23.6284 17.3269 23.8169C16.676 24.5149 15.6978 24.7615 14.8354 24.4466C13.9656 24.1291 13.3596 23.4615 13.1721 22.6151C12.9896 21.7905 13.2379 20.9422 13.8362 20.3458L15.724 18.2307C16.3017 17.5839 17.1312 17.2129 18 17.2129C18.8688 17.2129 19.6983 17.5839 20.276 18.2307L22.1704 20.3527C22.7621 20.9422 23.0104 21.7905 22.8279 22.6151ZM25.2762 16.7548C24.9788 17.3346 24.4906 17.7794 23.9701 17.9446C23.8197 17.9923 23.6713 18.0161 23.5278 18.0161C23.33 18.0161 23.1416 17.9711 22.9695 17.8813C22.2188 17.4897 22.0302 16.3481 22.5489 15.3364C22.8465 14.7565 23.3349 14.3116 23.8552 14.1466C24.2126 14.0332 24.5586 14.055 24.8559 14.2101C25.6065 14.6013 25.7951 15.7429 25.2762 16.7548Z" fill="#d7b56d"/>
</svg>
