<svg width="36" height="36" viewBox="0 0 36 36" fill="none" xmlns="http://www.w3.org/2000/svg">
<path d="M13.74 16.305C13.59 16.29 13.41 16.29 13.245 16.305C9.67497 16.185 6.83997 13.26 6.83997 9.66C6.83997 5.985 9.80997 3 13.5 3C17.175 3 20.16 5.985 20.16 9.66C20.145 13.26 17.31 16.185 13.74 16.305Z" stroke="black" stroke-width="2.5" stroke-linecap="round" stroke-linejoin="round"/>
<path d="M24.615 6C27.525 6 29.865 8.355 29.865 11.25C29.865 14.085 27.615 16.395 24.81 16.5C24.69 16.485 24.555 16.485 24.42 16.5" stroke="black" stroke-width="2.5" stroke-linecap="round" stroke-linejoin="round"/>
<path d="M6.23996 21.84C2.60996 24.27 2.60996 28.23 6.23996 30.645C10.365 33.405 17.13 33.405 21.255 30.645C24.885 28.215 24.885 24.255 21.255 21.84C17.145 19.095 10.38 19.095 6.23996 21.84Z" stroke="black" stroke-width="2.5" stroke-linecap="round" stroke-linejoin="round"/>
<path d="M27.51 30C28.59 29.775 29.61 29.34 30.45 28.695C32.79 26.94 32.79 24.045 30.45 22.29C29.625 21.66 28.62 21.24 27.555 21" stroke="black" stroke-width="2.5" stroke-linecap="round" stroke-linejoin="round"/>
</svg>
